<svg xmlns="http://www.w3.org/2000/svg" viewBox="0 0 166.71 165.72"><defs><style>.cls-1{fill:#020202;}</style></defs><g id="Calque_2" data-name="Calque 2"><g id="Calque_1-2" data-name="Calque 1"><path class="cls-1" d="M10.22,136.38H4.52v2.86h5.94q8.25,0,13.88-7.24T30,113.14q0-11.46-6.23-18.89T9,86.8l-8.91,0L0,139.22H2.43l.11-49.57H8.12a17.12,17.12,0,0,1,13.8,6.77q5.47,6.76,5.45,16.7a28.56,28.56,0,0,1-4.69,16.42Q18,136.39,10.22,136.38Z"/><path class="cls-1" d="M56.27,129.18a15.55,15.55,0,0,1-4.1,3.82,8.73,8.73,0,0,1-4.71,1.17q-4.4-.07-7.76-4.65a18,18,0,0,1-3.27-11.27A18.27,18.27,0,0,1,40,107c2.32-3,5-4.48,7.94-4.44q4.93.09,8.09,4.84a19.08,19.08,0,0,1,3.06,11.16l-.28,17.71,2.26,0,.28-17.7a21.47,21.47,0,0,0-3.74-13.25q-3.87-5.33-9.57-5.42t-9.79,5.08q-4,5.17-4.1,13.16t3.73,13.25q3.85,5.32,9.54,5.42a8.91,8.91,0,0,0,4.85-1.17,19.46,19.46,0,0,0,3.93-3.21Z"/><path class="cls-1" d="M101.39,133.6c1.81-2.23,2.76-5.33,2.82-9.3l.37-23.5-2.26,0-.37,23.5c0,3.27-.79,5.74-2.22,7.43a6.4,6.4,0,0,1-10.27-.2q-2.13-2.64-2.06-7.45l.38-23.51-2.26,0L85.15,124c-.05,3.26-.79,5.74-2.22,7.42a6.37,6.37,0,0,1-10.23-.19c-1.41-1.76-2.09-4.24-2-7.46l.37-23.5-2.26,0-.37,23.51q-.09,5.94,2.53,9.38a8.3,8.3,0,0,0,6.73,3.5,8.09,8.09,0,0,0,5.44-1.69,10.14,10.14,0,0,0,3.12-5.11A9.7,9.7,0,0,0,89.14,135a8.07,8.07,0,0,0,5.35,1.85A8.36,8.36,0,0,0,101.39,133.6Z"/><path class="cls-1" d="M131.92,129.18a15.55,15.55,0,0,1-4.1,3.82,8.73,8.73,0,0,1-4.71,1.17q-4.39-.07-7.77-4.65a18,18,0,0,1-3.26-11.27A18.21,18.21,0,0,1,115.67,107c2.32-3,5-4.48,7.94-4.44q4.92.09,8.09,4.84a19.08,19.08,0,0,1,3.06,11.16l-.28,17.71,2.26,0,.28-17.7q.12-7.9-3.75-13.25T123.71,100q-5.82-.09-9.79,5.08t-4.1,13.16q-.12,7.91,3.73,13.25t9.54,5.42a8.91,8.91,0,0,0,4.85-1.17,19.74,19.74,0,0,0,3.93-3.21Z"/><path class="cls-1" d="M163.64,104.7a9.9,9.9,0,0,0-7.93-4.16,9.8,9.8,0,0,0-8.05,3.91q-3.24,4-3.34,10.46L144,136.53l2.26,0,.33-21.24a14.31,14.31,0,0,1,2.72-8.81,7.61,7.61,0,0,1,12.72.2,14.33,14.33,0,0,1,2.43,8.89l-.33,21.25,2.26,0,.34-21.62Q166.82,108.78,163.64,104.7Z"/><path class="cls-1" d="M50.67,62.65c14.66,2.7,33.64-2.36,53-11.33,9-4.71,17.51-9,24-16.72-7.54,8.22-15.23,11.23-20.48,14.09-5.33,2.56-8.7,3.58-8.78,3.3s5.48-3,13.9-8.28c4.1-2.74,9.37-5.8,13.51-11,.92-1.3,1.83-3.08,1.12-4.72s-2.47-2.38-4-3a26,26,0,0,0-10.72-1.22,71.76,71.76,0,0,0-25.19,6.62v0c.29.69,8.1-2.89,21.38-4.4a39.74,39.74,0,0,1,10.53.2A12.81,12.81,0,0,1,123.85,28c1.45,1.15,1.12.68.52,2.33-1.88,3-6,5.89-9.9,8.46a134.11,134.11,0,0,1-13.11,7.29A162.81,162.81,0,0,1,74.27,56.19c-8.57,1.88-16.65,3.68-22.76,2.49-3-.56-5.85-1.76-6.18-3.46-.74-1.41,1.2-3.47,2.29-5,2.42-3.08,3.61-5,3.32-5.25s-2,1.08-4.87,3.7a25.25,25.25,0,0,0-2.38,2.43A5.62,5.62,0,0,0,42.34,56C43.27,60.22,47.37,61.68,50.67,62.65Z"/><path class="cls-1" d="M72,82.29a44.11,44.11,0,0,0,14.59-.2c-10.19,1.27-17-1.34-16.84-1.77,0-.93,12.63,1.94,26.71-3.82a60.51,60.51,0,0,0,12-5.6S104,72.2,97.67,74c-6.81,1.74-15.13,4.21-24.91,2.59-9.86-1.43-18.25-5.07-23.27-9.14s-7.08-7.94-7.87-7.54c-.6.18.16,5.07,5.29,10.58S61.27,80.76,72,82.29Z"/><path class="cls-1" d="M74.11,41.68a26.51,26.51,0,0,1-1.86-14.89c.31-1.92,4.31-9.5,4.82-12.13C78.29,8.28,75,2.07,69.47,0a26.67,26.67,0,0,1,1.38,15c-.39,2-4.4,9.81-4.81,12.4C65,33.8,68.56,39.85,74.11,41.68Z"/><path class="cls-1" d="M78.31,37.81a25.65,25.65,0,0,1-2.12,11.52c3.53-.94,6.09-5.38,5.89-10.51-.08-2.11-1.87-8.51-1.9-10a25.2,25.2,0,0,1,2.41-11.38c-3.54.74-6.22,5-6.15,10.16C76.47,29.62,78.25,36.18,78.31,37.81Z"/><path class="cls-1" d="M10.57,149.58H5.69c0,.36,0,.78-.06,1.25,1.09,0,2.36-.07,3.81-.08l-.08,2.61L9.12,159l-.18,2.73.91,0,.85,0v-1.49l.19-5.54.19-3.94h.73c1.12,0,2.13,0,3,.08,0-.31,0-.73.07-1.26H10.57Z"/><path class="cls-1" d="M20.48,152.5a3.33,3.33,0,0,0-.84.1,3,3,0,0,0-.73.29,2.26,2.26,0,0,0-.57.46,5.36,5.36,0,0,0-.59.83l.07-1.48h-1.5v.82q0,3.06-.33,8.2l.81,0,.78,0v-.6c0-.89,0-1.74,0-2.54a22.6,22.6,0,0,1,.14-2.27,4.09,4.09,0,0,1,.28-1,3,3,0,0,1,.54-.84,2.24,2.24,0,0,1,.76-.52,2.16,2.16,0,0,1,.94-.17,3.84,3.84,0,0,1,1,.15q-.06-.74-.06-1.32A3.12,3.12,0,0,0,20.48,152.5Z"/><path class="cls-1" d="M29.45,152.93a3,3,0,0,0-1.16-.48,7.06,7.06,0,0,0-1.5-.15,13.39,13.39,0,0,0-1.53.1,16.66,16.66,0,0,0-1.86.38c-.06.51-.11.9-.17,1.16.44-.17.81-.3,1.1-.39a9.54,9.54,0,0,1,1.05-.22,8.15,8.15,0,0,1,1.19-.09,4.24,4.24,0,0,1,1.08.12,1.49,1.49,0,0,1,.74.44,1.08,1.08,0,0,1,.29.75,1.07,1.07,0,0,1-.06.35,1.62,1.62,0,0,1-.2.36,2,2,0,0,1-.29.29,1.71,1.71,0,0,1-.38.21l-.49.18q-.27.09-.66.18c-.82.2-1.41.35-1.78.47a8.63,8.63,0,0,0-1,.35,4.13,4.13,0,0,0-.79.45,2.9,2.9,0,0,0-.59.55,2.6,2.6,0,0,0-.32.62,2.17,2.17,0,0,0-.12.74,2.5,2.5,0,0,0,.33,1.26,2.07,2.07,0,0,0,1,.87,5,5,0,0,0,1.9.29l.78,0a8.23,8.23,0,0,0,1.05-.16c.11-.47.21-.83.29-1.06a5.83,5.83,0,0,1-1.09.27,5.49,5.49,0,0,1-.79,0,3.44,3.44,0,0,1-1-.13,1.52,1.52,0,0,1-.72-.5,1.32,1.32,0,0,1-.29-.84,1.52,1.52,0,0,1,.12-.59,1.4,1.4,0,0,1,.34-.46,2.57,2.57,0,0,1,.6-.43,5.36,5.36,0,0,1,1-.39c.19-.07.51-.16,1-.29l.92-.26a3.54,3.54,0,0,0,.43-.16,2.41,2.41,0,0,0,.36-.18c.1-.07.26-.18.46-.34l-.13,2.88-.19,2.43c.35,0,.62,0,.81,0l.78,0c0-.64,0-1.37.05-2.19s.08-1.71.14-2.68.1-1.65.1-2.06a2.71,2.71,0,0,0-.15-.91A1.58,1.58,0,0,0,29.45,152.93Z"/><path class="cls-1" d="M33.05,152.7l-.08,3-.17,3.83-.16,2.24.86,0,.8,0c0-.66,0-1.6.05-2.79s.08-2.31.13-3.32.12-2,.19-2.91H33.05Z"/><path class="cls-1" d="M33.08,149.5c0,.28,0,.7,0,1.26h1.69c0-.65,0-1.08,0-1.26l-.85,0Z"/><path class="cls-1" d="M45.08,153.3a2.52,2.52,0,0,0-1.17-.61,5.56,5.56,0,0,0-1.48-.19,5.93,5.93,0,0,0-.84.06,4.75,4.75,0,0,0-.83.19,3.11,3.11,0,0,0-.71.32,3.89,3.89,0,0,0-.53.41,2.13,2.13,0,0,0-.35.43q-.14.19-.36.57l.12-1.78H37.35q0,3.44-.45,9h.83c.19,0,.44,0,.78,0,0-2,.1-3.51.19-4.45a6.16,6.16,0,0,1,.36-1.76,3,3,0,0,1,1.06-1.29,3.17,3.17,0,0,1,1.77-.49,3.27,3.27,0,0,1,1.32.26,1.7,1.7,0,0,1,.85.72,2.49,2.49,0,0,1,.27,1.25c0,.36,0,.9,0,1.61l-.12,2.07c0,.67-.08,1.36-.14,2.08l.82,0,.76,0c0-.52,0-.95,0-1.31l.18-3.73c0-.35,0-.64,0-.86s0-.37,0-.45a3.77,3.77,0,0,0-.16-1.13A2,2,0,0,0,45.08,153.3Z"/><path class="cls-1" d="M48.65,152.7l-.07,3-.18,3.83-.15,2.24.85,0,.8,0c0-.67,0-1.6.06-2.8s.07-2.3.13-3.31.12-2,.18-2.91H48.65Z"/><path class="cls-1" d="M48.69,149.5q0,.42,0,1.26h1.69c0-.65,0-1.08.06-1.26l-.86,0Z"/><path class="cls-1" d="M60.69,153.3a2.62,2.62,0,0,0-1.17-.61A5.61,5.61,0,0,0,58,152.5a5.93,5.93,0,0,0-.84.06,5.08,5.08,0,0,0-.84.19,3.11,3.11,0,0,0-.71.32,3.77,3.77,0,0,0-.52.41,2.65,2.65,0,0,0-.36.43q-.14.19-.36.57l.12-1.78H53c0,2.29-.17,5.29-.45,9,.37,0,.65,0,.83,0s.44,0,.77,0c0-2,.1-3.51.19-4.45a6.46,6.46,0,0,1,.37-1.76,3,3,0,0,1,1-1.29,3.23,3.23,0,0,1,1.78-.49,3.34,3.34,0,0,1,1.32.26,1.75,1.75,0,0,1,.85.72,2.49,2.49,0,0,1,.27,1.25c0,.36,0,.9-.06,1.61l-.12,2.08c0,.66-.07,1.35-.13,2.07l.82,0,.76,0c0-.52,0-.95,0-1.31l.18-3.73c0-.35,0-.64,0-.86s0-.37,0-.45a4.11,4.11,0,0,0-.16-1.13A2.07,2.07,0,0,0,60.69,153.3Z"/><path class="cls-1" d="M67.12,152.48a5,5,0,0,0-1.88,1A4.59,4.59,0,0,0,64,155.33a6.14,6.14,0,0,0-.44,2.29,4.93,4.93,0,0,0,.29,1.67,3.28,3.28,0,0,0,.85,1.32,3.36,3.36,0,0,0,1.26.74,5,5,0,0,0,1.52.22,4.66,4.66,0,0,0,1.06-.12,4,4,0,0,0,.91-.32,3.49,3.49,0,0,0,.69-.47,2.65,2.65,0,0,0,.46-.51,5.54,5.54,0,0,0,.39-.65q0,1.89-.12,2.52a4.83,4.83,0,0,1-.33,1.29,2.16,2.16,0,0,1-.47.62,2.59,2.59,0,0,1-.9.48,4.37,4.37,0,0,1-1.37.21,9.85,9.85,0,0,1-1.45-.13,14.36,14.36,0,0,1-2-.48c0,.41,0,.67.06.79l0,.49a14.26,14.26,0,0,0,1.88.34,16,16,0,0,0,1.71.09,7.06,7.06,0,0,0,1.21-.1,5,5,0,0,0,1-.26A3.18,3.18,0,0,0,71,165a2.47,2.47,0,0,0,.54-.47,2.15,2.15,0,0,0,.4-.55,3.48,3.48,0,0,0,.29-.69,5.72,5.72,0,0,0,.16-1l.05-1.85c0-1.11,0-1.71,0-1.81l.27-5,.1-1.1a20.34,20.34,0,0,0-3.41-.37A8.29,8.29,0,0,0,67.12,152.48Zm3.95,4.23a6.92,6.92,0,0,1-.26,1.48,3.53,3.53,0,0,1-.68,1.25,2.75,2.75,0,0,1-1,.78,3.21,3.21,0,0,1-1.28.25,3.08,3.08,0,0,1-1.5-.36,2.18,2.18,0,0,1-1-1.08,3.67,3.67,0,0,1-.31-1.57,4.78,4.78,0,0,1,.34-1.79,3.78,3.78,0,0,1,1-1.41,3.31,3.31,0,0,1,1.36-.74,5.94,5.94,0,0,1,1.62-.21,9.66,9.66,0,0,1,1.85.2C71.17,155.12,71.12,156.19,71.07,156.71Z"/><path class="cls-1" d="M80.32,152.7l-.08,3-.17,3.83-.16,2.24.86,0,.8,0c0-.67,0-1.6.05-2.8s.08-2.3.13-3.31.12-2,.19-2.91H80.32Z"/><path class="cls-1" d="M80.35,149.5c0,.28,0,.7,0,1.26H82c0-.65,0-1.08,0-1.26l-.85,0Z"/><path class="cls-1" d="M86.73,153.55a3,3,0,0,1,1-.14,5.23,5.23,0,0,1,2,.41c0-.39-.07-.81-.09-1.28a11.83,11.83,0,0,0-2.25-.24,4.55,4.55,0,0,0-1.6.26,2.23,2.23,0,0,0-1,.8,2,2,0,0,0-.36,1.1,2.16,2.16,0,0,0,.12.71,2.42,2.42,0,0,0,.39.69,4.33,4.33,0,0,0,.63.67l1.08.9c.48.39.8.65,1,.79a2.22,2.22,0,0,1,.34.38A1,1,0,0,1,88,159a1.19,1.19,0,0,1,.06.37,1.14,1.14,0,0,1-.21.65,1.3,1.3,0,0,1-.63.48,3,3,0,0,1-1,.16,6.39,6.39,0,0,1-2.53-.6c0,.38.07.61.07.68l.06.65c.35.09.65.16.89.2a7.53,7.53,0,0,0,.88.12c.34,0,.64.05.9.05a4.42,4.42,0,0,0,1.63-.29,2.32,2.32,0,0,0,1.1-.83,2,2,0,0,0,.37-1.16,2.16,2.16,0,0,0-.09-.62,2.08,2.08,0,0,0-.3-.62,3.85,3.85,0,0,0-.49-.61,12.13,12.13,0,0,0-1-.91l-1-.83a3.69,3.69,0,0,1-.44-.45,1.81,1.81,0,0,1-.25-.43,1.1,1.1,0,0,1-.07-.41,1,1,0,0,1,.21-.6A1.27,1.27,0,0,1,86.73,153.55Z"/><path class="cls-1" d="M104.26,153.42a3.75,3.75,0,0,0-1.46-.85,5.81,5.81,0,0,0-1.78-.27,5.25,5.25,0,0,0-2.44.58,3.86,3.86,0,0,0-1.73,1.73,5.73,5.73,0,0,0-.59,2.61,5.39,5.39,0,0,0,.32,1.84,4,4,0,0,0,.94,1.48,3.68,3.68,0,0,0,1.47.89,5.55,5.55,0,0,0,1.79.29,5.77,5.77,0,0,0,1.92-.31,3.74,3.74,0,0,0,1.52-1,4.83,4.83,0,0,0,1-1.64,6.05,6.05,0,0,0,.34-2,5.27,5.27,0,0,0-.32-1.86A3.51,3.51,0,0,0,104.26,153.42Zm-.51,4.93a3.29,3.29,0,0,1-.66,1.29,2.52,2.52,0,0,1-1,.75,3.56,3.56,0,0,1-1.26.23,2.93,2.93,0,0,1-1.67-.47,2.62,2.62,0,0,1-1-1.21,4.56,4.56,0,0,1-.3-1.7,5.18,5.18,0,0,1,.37-2,2.67,2.67,0,0,1,1.12-1.36,3.13,3.13,0,0,1,1.67-.46,3.9,3.9,0,0,1,1.12.17,2.62,2.62,0,0,1,1,.59,2.45,2.45,0,0,1,.65,1.1,4.93,4.93,0,0,1,.21,1.47A5.93,5.93,0,0,1,103.75,158.35Z"/><path class="cls-1" d="M114.83,152.51c0,1.1,0,2.19-.1,3.26,0,.88-.09,1.48-.13,1.82a4.72,4.72,0,0,1-.28,1.15,3.25,3.25,0,0,1-.64,1,2.69,2.69,0,0,1-.88.55,3.56,3.56,0,0,1-1.26.23,3.52,3.52,0,0,1-1.34-.25,1.63,1.63,0,0,1-.85-.73,2.59,2.59,0,0,1-.25-1.25c0-.34,0-1.13.11-2.36s.16-2.37.24-3.41h-1.58c0,.34,0,.61,0,.83l0,1-.15,3c0,.41,0,.74-.05,1s0,.43,0,.54a3,3,0,0,0,.39,1.65,2.57,2.57,0,0,0,1.17.94,4.67,4.67,0,0,0,1.85.33,5.53,5.53,0,0,0,.94-.07,5.42,5.42,0,0,0,.77-.19,4.58,4.58,0,0,0,.58-.25,3.09,3.09,0,0,0,.47-.36,2.49,2.49,0,0,0,.39-.42,4.8,4.8,0,0,0,.37-.62l0,1.72c.25,0,.5,0,.73,0l.75,0c0-1.57.06-2.95.13-4.15.11-2.18.21-3.8.3-4.87h-1.58Z"/><path class="cls-1" d="M123.08,152.5a3.33,3.33,0,0,0-.84.1,3,3,0,0,0-.73.29,2.26,2.26,0,0,0-.57.46,5.36,5.36,0,0,0-.59.83l.08-1.48h-1.51v.82c0,2-.11,4.78-.33,8.2l.82,0,.77,0v-.6c0-.89,0-1.74,0-2.54a22.6,22.6,0,0,1,.14-2.27,4.09,4.09,0,0,1,.28-1,3,3,0,0,1,.54-.84,2.24,2.24,0,0,1,.76-.52,2.35,2.35,0,0,1,.94-.17,3.84,3.84,0,0,1,1,.15q-.06-.74-.06-1.32A3.12,3.12,0,0,0,123.08,152.5Z"/><path class="cls-1" d="M143,152.71l-.69,1.72-2.49,5.91-2.05-7.64h-1.62l-2.82,7.64-1.81-5.25-.78-2.39h-1.52l2.76,7.72.42,1.3c.33,0,.63,0,.89,0s.51,0,.82,0c.11-.35.22-.65.31-.89l1.88-5.13c.19-.53.31-.86.37-1l.17-.46c.12.4.23.81.34,1.22l1.64,6.25.89,0,.82,0,1-2.3,3-6.71H143Z"/><path class="cls-1" d="M152.34,152.93a3.07,3.07,0,0,0-1.16-.48,7.06,7.06,0,0,0-1.5-.15,11.48,11.48,0,0,0-1.53.11,14.44,14.44,0,0,0-1.86.37c-.06.51-.12.9-.17,1.16.44-.17.81-.3,1.1-.39a8.64,8.64,0,0,1,1.05-.22,8.15,8.15,0,0,1,1.19-.09,4.35,4.35,0,0,1,1.08.12,1.53,1.53,0,0,1,.74.44,1.08,1.08,0,0,1,.29.75,1,1,0,0,1-.06.35,1.62,1.62,0,0,1-.2.36,1.51,1.51,0,0,1-.67.5l-.49.18c-.18.06-.41.12-.67.18-.81.2-1.4.35-1.77.47a8,8,0,0,0-1,.35,4.53,4.53,0,0,0-.8.45,3.1,3.1,0,0,0-.58.55,2.28,2.28,0,0,0-.32.62,2.17,2.17,0,0,0-.13.74,2.5,2.5,0,0,0,.34,1.26,2.09,2.09,0,0,0,1,.87,5.14,5.14,0,0,0,1.91.29l.77,0a8.09,8.09,0,0,0,1.06-.16c.11-.47.21-.83.29-1.06a5.72,5.72,0,0,1-1.1.27,5.27,5.27,0,0,1-.78,0,3.56,3.56,0,0,1-1-.13,1.54,1.54,0,0,1-.71-.5,1.3,1.3,0,0,1-.29-.84,1.52,1.52,0,0,1,.12-.59,1.27,1.27,0,0,1,.34-.46,2.57,2.57,0,0,1,.6-.43,5.36,5.36,0,0,1,1-.39c.19-.07.51-.16,1-.29l.92-.26a3.54,3.54,0,0,0,.43-.16,1.64,1.64,0,0,0,.35-.18l.47-.34-.13,2.88-.2,2.43c.35,0,.62,0,.81,0l.79,0c0-.64,0-1.37.05-2.19s.08-1.71.14-2.68.1-1.65.1-2.06a2.71,2.71,0,0,0-.15-.91A1.58,1.58,0,0,0,152.34,152.93Z"/><path class="cls-1" d="M162.06,152.39l-.24.66-.15.41-1.87,4.35-1,2.45c-.15-.53-.29-1-.44-1.49L157,154.68c-.22-.67-.36-1.12-.43-1.34s-.14-.54-.24-1h-1.67l1.39,3.86,1.9,5.41a11.11,11.11,0,0,1-.49,1.08c-.17.33-.33.61-.48.85a3.81,3.81,0,0,1-.43.57,1.45,1.45,0,0,1-.54.33,2,2,0,0,1-.68.13,3.56,3.56,0,0,1-.65-.08,3.76,3.76,0,0,1-.83-.29c.06.35.11.77.16,1.27a6.38,6.38,0,0,0,1.49.2,4.12,4.12,0,0,0,.86-.09,3.32,3.32,0,0,0,.71-.25,2,2,0,0,0,.48-.32,2.75,2.75,0,0,0,.5-.52,7,7,0,0,0,.63-1.12l3.31-7.34q1.33-2.9,1.68-3.69l-.82,0Z"/></g></g></svg>