<svg width="41" height="63" viewBox="0 0 41 63" fill="none" xmlns="http://www.w3.org/2000/svg">
<path d="M19.5 0.679993V19.44H10.12C4.95429 19.44 0.73999 15.2257 0.73999 10.06C0.73999 4.89429 4.95429 0.679993 10.12 0.679993H19.5ZM19.5 22.12V40.88H10.12C4.95429 40.88 0.73999 36.6657 0.73999 31.5C0.73999 26.3343 4.95429 22.12 10.12 22.12H19.5ZM19.5 43.56V52.94C19.5 58.1057 15.2857 62.32 10.12 62.32C4.95429 62.32 0.73999 58.1057 0.73999 52.94C0.73999 47.7743 4.95429 43.56 10.12 43.56H19.5ZM40.94 10.06C40.94 15.2257 36.7257 19.44 31.56 19.44H22.18V0.679993H31.56C36.7257 0.679993 40.94 4.89429 40.94 10.06ZM31.56 22.12C29.0723 22.12 26.6864 23.1082 24.9273 24.8673C23.1682 26.6264 22.18 29.0123 22.18 31.5C22.18 33.9877 23.1682 36.3736 24.9273 38.1327C26.6864 39.8917 29.0723 40.88 31.56 40.88C34.0477 40.88 36.4336 39.8917 38.1926 38.1327C39.9517 36.3736 40.94 33.9877 40.94 31.5C40.94 29.0123 39.9517 26.6264 38.1926 24.8673C36.4336 23.1082 34.0477 22.12 31.56 22.12Z" fill="#1d050e"/>
</svg>
