<svg xmlns="http://www.w3.org/2000/svg" xmlns:xlink="http://www.w3.org/1999/xlink" viewBox="0 0 2294.36 2447.38"><defs><style>.cls-1{fill:url(#Dégradé_sans_nom_35);}.cls-2{fill:url(#Dégradé_sans_nom_35-2);}.cls-3{fill:url(#Dégradé_sans_nom_35-3);}.cls-4{opacity:0.2;fill:url(#Dégradé_sans_nom_35-4);}.cls-5{opacity:0.5;}.cls-6{fill:url(#Dégradé_sans_nom_35-5);}.cls-7{fill:url(#Dégradé_sans_nom_35-6);}.cls-8{fill:url(#Dégradé_sans_nom_35-7);}.cls-9{fill:url(#Dégradé_sans_nom_35-8);}.cls-10{fill:url(#Dégradé_sans_nom_35-9);}.cls-11{fill:url(#Dégradé_sans_nom_35-10);}.cls-12{fill:url(#Dégradé_sans_nom_35-11);}.cls-13{fill:url(#Dégradé_sans_nom_35-12);}.cls-14{fill:url(#Dégradé_sans_nom_35-13);}.cls-15{fill:url(#Dégradé_sans_nom_35-14);}.cls-16{fill:url(#Dégradé_sans_nom_35-15);}.cls-17{fill:url(#Dégradé_sans_nom_35-16);}.cls-18{fill:url(#Dégradé_sans_nom_35-17);}.cls-19{fill:url(#Dégradé_sans_nom_35-18);}.cls-20{fill:url(#Dégradé_sans_nom_35-19);}.cls-21{fill:url(#Dégradé_sans_nom_35-20);}.cls-22{fill:url(#Dégradé_sans_nom_35-21);}</style><linearGradient id="Dégradé_sans_nom_35" x1="488.79" y1="-165.22" x2="2614.36" y2="1970" gradientUnits="userSpaceOnUse"><stop offset="0" stop-color="#dd4b5c"/><stop offset="0.2" stop-color="#dd5453"/><stop offset="0.53" stop-color="#de6c3c"/><stop offset="0.95" stop-color="#df9416"/><stop offset="1" stop-color="#df9911"/></linearGradient><linearGradient id="Dégradé_sans_nom_35-2" x1="-466.36" y1="785.62" x2="1659.21" y2="2920.84" xlink:href="#Dégradé_sans_nom_35"/><linearGradient id="Dégradé_sans_nom_35-3" x1="535.89" y1="1591.99" x2="2040.13" y2="1591.99" xlink:href="#Dégradé_sans_nom_35"/><linearGradient id="Dégradé_sans_nom_35-4" x1="-218.88" y1="539.25" x2="1906.69" y2="2674.47" xlink:href="#Dégradé_sans_nom_35"/><linearGradient id="Dégradé_sans_nom_35-5" x1="404.01" y1="-80.82" x2="2529.58" y2="2054.39" xlink:href="#Dégradé_sans_nom_35"/><linearGradient id="Dégradé_sans_nom_35-6" x1="-658.52" y1="976.91" x2="1467.05" y2="3112.13" xlink:href="#Dégradé_sans_nom_35"/><linearGradient id="Dégradé_sans_nom_35-7" x1="536.33" y1="2175.81" x2="549.99" y2="2189.53" xlink:href="#Dégradé_sans_nom_35"/><linearGradient id="Dégradé_sans_nom_35-8" x1="-44.71" y1="365.87" x2="2080.86" y2="2501.08" xlink:href="#Dégradé_sans_nom_35"/><linearGradient id="Dégradé_sans_nom_35-9" x1="632.13" y1="-307.91" x2="2757.7" y2="1827.31" xlink:href="#Dégradé_sans_nom_35"/><linearGradient id="Dégradé_sans_nom_35-10" x1="330.33" y1="133.37" x2="2234.29" y2="1079.66" xlink:href="#Dégradé_sans_nom_35"/><linearGradient id="Dégradé_sans_nom_35-11" x1="372.48" y1="48.56" x2="2276.44" y2="994.84" xlink:href="#Dégradé_sans_nom_35"/><linearGradient id="Dégradé_sans_nom_35-12" x1="464.14" y1="-135.86" x2="2368.1" y2="810.42" xlink:href="#Dégradé_sans_nom_35"/><linearGradient id="Dégradé_sans_nom_35-13" x1="486.29" y1="-180.43" x2="2390.26" y2="765.85" xlink:href="#Dégradé_sans_nom_35"/><linearGradient id="Dégradé_sans_nom_35-14" x1="486.05" y1="-179.94" x2="2390.01" y2="766.34" xlink:href="#Dégradé_sans_nom_35"/><linearGradient id="Dégradé_sans_nom_35-15" x1="495.51" y1="-198.99" x2="2399.48" y2="747.3" xlink:href="#Dégradé_sans_nom_35"/><linearGradient id="Dégradé_sans_nom_35-16" x1="503.6" y1="-215.25" x2="2407.56" y2="731.04" xlink:href="#Dégradé_sans_nom_35"/><linearGradient id="Dégradé_sans_nom_35-17" x1="504.89" y1="-217.85" x2="2408.85" y2="728.43" xlink:href="#Dégradé_sans_nom_35"/><linearGradient id="Dégradé_sans_nom_35-18" x1="510.15" y1="-228.42" x2="2414.11" y2="717.86" xlink:href="#Dégradé_sans_nom_35"/><linearGradient id="Dégradé_sans_nom_35-19" x1="453.45" y1="-114.35" x2="2357.41" y2="831.93" xlink:href="#Dégradé_sans_nom_35"/><linearGradient id="Dégradé_sans_nom_35-20" x1="437.08" y1="-81.42" x2="2341.05" y2="864.86" xlink:href="#Dégradé_sans_nom_35"/><linearGradient id="Dégradé_sans_nom_35-21" x1="383.19" y1="27.01" x2="2287.16" y2="973.29" xlink:href="#Dégradé_sans_nom_35"/></defs><g id="Calque_2" data-name="Calque 2"><g id="Finition"><path class="cls-1" d="M537.72,450.35A1078.1,1078.1,0,0,1,695,374.28l20.52-7.6c3.43-1.24,6.82-2.6,10.28-3.73l10.38-3.46,20.78-6.9,21-6.22,10.5-3.11c3.49-1,7-1.88,10.57-2.82l21.18-5.54c3.52-1,7.09-1.73,10.65-2.54L841.53,330l10.68-2.42,5.34-1.21c1.79-.38,3.58-.7,5.38-1.05a1100.14,1100.14,0,0,1,173.85-20.72l21.91-.48,11-.23c3.66-.1,7.31,0,11,0l11,.1c3.66.06,7.31,0,11,.18l21.91.76q43.82,2.07,87.38,7.49l21.73,3c7.23,1.09,14.44,2.31,21.66,3.47s14.39,2.58,21.58,3.89l10.78,2L1298.3,327l10.73,2.3,5.36,1.16,5.33,1.29c7.11,1.73,14.23,3.41,21.32,5.18l21.2,5.69c3.54.91,7,2,10.54,3l10.52,3.11q42,12.68,83,28.66t80.27,35.5A1061.79,1061.79,0,0,1,1697,503.09c23.84,17,46.86,35.1,69.19,54s43.89,38.76,64.65,59.41,40.47,42.32,59.41,64.64,37,45.35,54,69.2a1062.62,1062.62,0,0,1,90.15,150.48q19.33,39.4,35.5,80.27,16,40.89,28.66,82.95l3.11,10.52c1,3.52,2.11,7,3,10.55l5.69,21.19c1.77,7.1,3.45,14.22,5.18,21.32l1.29,5.34,1.17,5.36,2.3,10.72,2.28,10.73,2,10.78c1.31,7.2,2.8,14.36,3.89,21.59s2.38,14.43,3.47,21.66l3,21.73q5.43,43.53,7.49,87.38l.75,21.91c.17,3.65.12,7.3.18,11l.1,11c0,3.65.13,7.31,0,11l-.24,11-.47,21.91a1100.42,1100.42,0,0,1-20.73,173.86c-.35,1.79-.66,3.59-1.05,5.37l-1.21,5.34-2.42,10.69-2.41,10.67c-.81,3.56-1.57,7.13-2.54,10.65l-5.54,21.19c-.94,3.52-1.78,7.07-2.82,10.57l-3.11,10.5-6.22,21-6.91,20.77-3.45,10.39c-1.14,3.46-2.49,6.85-3.73,10.28l-7.61,20.52A1075.46,1075.46,0,0,1,1997,1909.66l10.46-19.18,5.23-9.59c1.71-3.21,3.3-6.49,5-9.73l9.83-19.49,1.23-2.44,1.15-2.48,2.3-5,4.6-9.9c6.34-13.11,11.86-26.58,17.62-39.94l2.15-5,2-5.08,4-10.17,4-10.16c1.31-3.39,2.69-6.76,3.85-10.21l7.27-20.57,1.82-5.14c.6-1.71,1.23-3.42,1.76-5.16l3.31-10.39,6.61-20.78,5.94-21,3-10.49c1-3.49,1.77-7,2.67-10.56l5.25-21.17c.92-3.51,1.63-7.08,2.39-10.63l2.27-10.66,2.27-10.66,1.14-5.33c.36-1.78.65-3.57,1-5.36a1098.56,1098.56,0,0,0,18.87-173.06l.25-21.78.14-10.89c.06-3.62-.09-7.25-.12-10.88l-.18-10.89c-.08-3.62,0-7.25-.25-10.88l-.9-21.75q-2.39-43.49-8.06-86.67c-15.6-115-49.5-227.54-101.34-331.31a1065.88,1065.88,0,0,0-89.57-148.88C1919,732.86,1901,710.09,1882.21,688s-38.45-43.4-58.91-63.94-41.86-40.12-63.93-58.91-44.85-36.76-68.44-53.6A1066.91,1066.91,0,0,0,1542.05,422c-103.77-51.84-216.32-85.75-331.31-101.35q-43.15-5.69-86.67-8.05l-21.75-.9c-3.62-.2-7.25-.18-10.88-.26l-10.89-.18c-3.63,0-7.25-.17-10.88-.11l-10.89.13-21.77.25a1098.7,1098.7,0,0,0-173.07,18.88c-1.79.33-3.58.61-5.36,1l-5.33,1.13-10.66,2.27-10.66,2.28c-3.55.76-7.12,1.47-10.63,2.39l-21.16,5.24c-3.52.9-7.07,1.7-10.57,2.68l-10.49,3-21,5.94-20.78,6.61-10.39,3.31c-1.74.53-3.44,1.16-5.16,1.76l-5.14,1.82L696.05,377c-3.45,1.16-6.81,2.54-10.21,3.85l-10.16,4-10.16,4-5.08,2-5,2.14c-13.36,5.76-26.83,11.29-39.94,17.62l-9.9,4.6-5,2.31-2.47,1.15-2.44,1.22-19.5,9.84c-3.24,1.66-6.52,3.24-9.73,5l-9.59,5.23Z"/><path class="cls-2" d="M1605.86,2300.84a1077,1077,0,0,1-157.29,76.06l-20.52,7.6c-3.43,1.24-6.82,2.6-10.28,3.74l-10.39,3.45-20.77,6.9-21,6.22-10.5,3.12c-3.5,1-7.05,1.87-10.57,2.82l-21.19,5.53c-3.52,1-7.09,1.73-10.64,2.54l-10.68,2.42-10.68,2.41-5.34,1.21c-1.79.39-3.59.7-5.38,1a1099.26,1099.26,0,0,1-173.85,20.73l-21.92.47-11,.24c-3.66.09-7.31,0-11,0l-11-.1c-3.66-.06-7.31,0-11-.18l-21.92-.75q-43.8-2.09-87.37-7.49l-21.73-3c-7.23-1.1-14.44-2.32-21.66-3.47s-14.39-2.58-21.59-3.89l-10.78-2-10.72-2.29-10.73-2.29-5.36-1.16-5.33-1.29c-7.11-1.73-14.23-3.41-21.32-5.19l-21.2-5.69c-3.54-.9-7-2-10.54-3l-10.52-3.11q-42-12.68-82.95-28.65t-80.27-35.5a1062.73,1062.73,0,0,1-150.49-90.15c-23.84-17-46.86-35.11-69.19-54s-43.89-38.77-64.65-59.41-40.47-42.33-59.41-64.64-37-45.35-54-69.2a1064.19,1064.19,0,0,1-90.16-150.48q-19.32-39.42-35.49-80.28-16-40.89-28.66-83l-3.11-10.52c-1-3.51-2.11-7-3-10.55l-5.69-21.19c-1.78-7.09-3.45-14.21-5.18-21.32l-1.29-5.33-1.17-5.36-2.3-10.73-2.28-10.73-2-10.78c-1.31-7.19-2.8-14.35-3.89-21.59s-2.38-14.43-3.47-21.66l-3-21.73q-5.43-43.53-7.49-87.37l-.75-21.91c-.17-3.65-.12-7.31-.18-11l-.1-11c0-3.66-.13-7.31,0-11l.24-11,.47-21.92a1100.42,1100.42,0,0,1,20.73-173.86c.35-1.79.66-3.59,1.05-5.37l1.21-5.34,2.41-10.68,2.42-10.68c.81-3.56,1.57-7.13,2.54-10.65l5.54-21.18c.94-3.53,1.78-7.08,2.82-10.58l3.11-10.49,6.22-21,6.9-20.77,3.46-10.38c1.13-3.47,2.49-6.86,3.73-10.29l7.61-20.51a1076.53,1076.53,0,0,1,76.06-157.29L136.1,860.7l-5.23,9.59c-1.72,3.21-3.3,6.49-5,9.73l-9.83,19.5L114.85,902l-1.15,2.47-2.3,5-4.6,9.9c-6.34,13.11-11.86,26.58-17.62,39.94l-2.15,5-2,5.08-4,10.16-4,10.17c-1.31,3.39-2.69,6.75-3.85,10.2L66,1020.42l-1.82,5.14c-.61,1.72-1.23,3.42-1.76,5.16l-3.31,10.39-6.61,20.79-5.94,21-3,10.49c-1,3.5-1.78,7.05-2.67,10.57l-5.25,21.16c-.92,3.51-1.63,7.08-2.39,10.63L31,1146.39l-2.27,10.66-1.14,5.33c-.36,1.78-.65,3.57-1,5.36A1098.82,1098.82,0,0,0,7.74,1340.81l-.26,21.77-.13,10.89c-.06,3.63.09,7.26.12,10.89l.17,10.88c.09,3.63.06,7.26.26,10.88l.9,21.76q2.38,43.47,8.05,86.66c15.61,115,49.51,227.54,101.35,331.32a1065.78,1065.78,0,0,0,89.57,148.87c16.84,23.6,34.83,46.36,53.6,68.45s38.45,43.4,58.91,63.93,41.86,40.13,63.93,58.91,44.85,36.76,68.44,53.61a1067.32,1067.32,0,0,0,148.87,89.57C705.3,2381,817.85,2415,932.84,2430.56q43.15,5.68,86.67,8l21.75.91c3.62.19,7.25.17,10.88.25l10.89.18c3.62,0,7.25.18,10.88.12l10.89-.13,21.77-.26a1098.69,1098.69,0,0,0,173.07-18.87c1.79-.33,3.58-.62,5.36-1l5.33-1.14,10.66-2.27,10.66-2.27c3.55-.76,7.12-1.47,10.63-2.4l21.16-5.24c3.52-.9,7.07-1.69,10.57-2.68l10.49-3,21-5.93,20.79-6.62,10.39-3.31c1.74-.53,3.44-1.15,5.16-1.76l5.14-1.82,20.57-7.27c3.45-1.16,6.81-2.54,10.2-3.85l10.17-4,10.16-4,5.08-2,5-2.15c13.36-5.76,26.83-11.28,39.94-17.62l9.9-4.6,5-2.3,2.47-1.15,2.44-1.23,19.5-9.84c3.24-1.65,6.52-3.24,9.73-4.95l9.58-5.23Z"/><path class="cls-3" d="M1874.18,840l11.38,17.31c3.77,5.79,7.68,11.49,11.17,17.45,7.11,11.84,14.53,23.51,21.08,35.69l10.09,18.11,9.43,18.47,4.71,9.24c.77,1.54,1.61,3.06,2.32,4.63l2.19,4.71,8.74,18.81,2.19,4.7,1.1,2.35,1,2.39,4,9.56,8,19.13c2.54,6.43,4.91,12.93,7.38,19.4l3.66,9.71,1.83,4.85,1.67,4.92,6.61,19.68c1.09,3.28,2.23,6.55,3.28,9.84l2.94,10,5.89,19.92c1,3.3,1.83,6.67,2.7,10l2.57,10.06,2.57,10.07,1.28,5c.43,1.67.85,3.35,1.19,5l4.37,20.31,2.18,10.16.54,2.54.45,2.56.9,5.11,3.6,20.47c1.31,6.8,2.14,13.68,3.1,20.54l2.84,20.59c.26,1.71.42,3.44.59,5.16l.51,5.17,1,10.34,1,10.35c.32,3.45.77,6.89.92,10.35a987.16,987.16,0,0,1-1.39,166.16,959.41,959.41,0,0,1-87.49,319.59q-17.76,37.66-38.79,73.68c-14,24-28.94,47.41-45,70.07a964.86,964.86,0,0,1-234.51,234.42c-22.67,16-46.1,31-70.09,45s-48.58,26.93-73.7,38.76a959,959,0,0,1-319.63,87.36,987.15,987.15,0,0,1-166.16,1.34l-2.59-.16-2.59-.26-5.17-.51-10.34-1-10.35-1-5.17-.51c-1.72-.16-3.44-.34-5.16-.61l-20.59-2.83-10.29-1.42-2.57-.36-2.56-.44L918,2331l-20.46-3.61-5.12-.9-2.55-.45-2.54-.55-10.16-2.18L856.9,2319c-1.7-.34-3.37-.77-5-1.2l-5-1.28-10.07-2.57-10.06-2.58c-3.35-.86-6.72-1.67-10-2.71l-19.92-5.88-10-2.95c-3.29-1.06-6.56-2.19-9.85-3.29l-19.67-6.62c-1.64-.56-3.29-1.08-4.92-1.67l-4.85-1.83-9.71-3.67c-6.46-2.47-13-4.84-19.39-7.39l-19.13-8-9.56-4-2.39-1-2.35-1.1-4.7-2.19-18.81-8.75-4.7-2.19c-1.57-.72-3.09-1.55-4.63-2.32L642.9,2241l-18.46-9.44-18.12-10.09c-12.17-6.55-23.84-14-35.67-21.1-6-3.49-11.66-7.41-17.45-11.18l-17.31-11.38,17.53,11c5.86,3.65,11.62,7.45,17.65,10.83,12,6.88,23.75,14.06,36,20.37l18.24,9.77,18.57,9.12,9.29,4.55c1.55.75,3.08,1.55,4.66,2.25l4.72,2.1,18.89,8.43A942.49,942.49,0,0,0,838,2308.8l10,2.43,5,1.22c1.67.41,3.34.83,5,1.15l20.23,4.13,10.12,2.06,2.53.52,2.55.42,5.09.84,20.37,3.37,5.09.85,2.55.41,2.56.32,10.24,1.31,20.48,2.6c1.71.24,3.42.4,5.13.54l5.14.46,10.28.92,10.28.91,5.14.46,2.57.23,2.58.13,20.61,1.06c6.87.33,13.74.8,20.62.8l20.63.31c3.44,0,6.88.14,10.32.11l10.31-.17c6.88-.12,13.76-.17,20.62-.54l10.31-.43c3.43-.15,6.87-.25,10.3-.52l20.58-1.38,20.54-1.89q41-4.21,81.6-11.82c6.74-1.35,13.51-2.56,20.23-4l20.13-4.43,20-4.91c3.34-.79,6.65-1.72,10-2.62l9.94-2.72A948,948,0,0,0,1482,2243.22a965.12,965.12,0,0,0,142.09-83.12,971.26,971.26,0,0,0,232-231.89,967.47,967.47,0,0,0,83.18-142.06l4.38-9.32c1.45-3.12,3-6.2,4.31-9.36l8.29-18.87,7.84-19.06c2.55-6.37,4.93-12.82,7.41-19.22q14.43-38.61,25.55-78.36l2.71-9.94c.9-3.31,1.85-6.62,2.63-10l4.93-20,4.43-20.13c.78-3.35,1.35-6.74,2-10.11l2-10.11q7.63-40.53,11.85-81.6l1.91-20.54,1.38-20.58c.27-3.43.39-6.87.53-10.3l.43-10.31c.12-3.44.35-6.87.37-10.31l.17-10.31.17-10.32c.07-3.44-.07-6.87-.1-10.31l-.31-20.64-.07-5.15,0-2.58-.14-2.58-.53-10.3-1-20.62c-.12-3.44-.53-6.85-.81-10.28l-.91-10.28-.92-10.28-.46-5.14c-.15-1.72-.28-3.43-.53-5.14l-2.6-20.48c-.89-6.82-1.64-13.67-2.87-20.44l-3.37-20.37-.84-5.1-.42-2.54-.51-2.53-2.06-10.12-4.13-20.24c-.32-1.69-.72-3.36-1.14-5l-1.22-5-2.42-10a942.83,942.83,0,0,0-52.52-156.57l-8.42-18.89-2.1-4.72c-.69-1.59-1.5-3.11-2.24-4.67l-4.55-9.28-9.11-18.58-9.77-18.25c-6.3-12.28-13.48-24.07-20.36-36-3.37-6-7.17-11.8-10.82-17.66Z"/><path class="cls-4" d="M664.54,1857.88c-263.92-2.85-477-217.69-477-482.29s213.06-479.43,477-482.29c119.88-1.3,219.7,94.46,219.69,214.35,0,102.29-71.66,187.84-167.5,209.21A60,60,0,0,0,669.87,1375v1.18a60,60,0,0,0,46.86,58.14c95.84,21.38,167.49,106.93,167.5,209.21C884.24,1763.43,784.42,1859.18,664.54,1857.88Z"/><g class="cls-5"><path class="cls-6" d="M743,518.4a995.55,995.55,0,0,1,112.4,18.51,951.75,951.75,0,0,1,109.37,31.76c2.24.79,4.49,1.55,6.72,2.37l6.66,2.52,13.32,5c4.42,1.74,8.81,3.56,13.21,5.33s8.86,3.63,13.1,5.25a150.53,150.53,0,0,0,108.16.42c4.28-1.59,8.77-3.41,13.16-5.13s8.81-3.51,13.24-5.2l13.36-4.9,6.68-2.45c2.23-.8,4.49-1.54,6.73-2.31l13.47-4.58c2.24-.78,4.5-1.48,6.77-2.19l6.78-2.12c4.54-1.39,9-2.89,13.6-4.2l13.67-3.91,6.84-2,6.88-1.79,13.76-3.58c4.6-1.18,9.23-2.19,13.84-3.29l6.92-1.62c2.31-.54,4.61-1.09,6.94-1.55q37.28-8,75.08-13.13A427.23,427.23,0,0,0,1071.79,411,960.56,960.56,0,0,0,639.37,513.12,991.37,991.37,0,0,1,743,518.4Z"/><path class="cls-7" d="M268.25,1909.41l-5.91-9C264.3,1903.44,266.26,1906.43,268.25,1909.41Z"/></g><g class="cls-5"><path class="cls-8" d="M538,2179.12q4.83,3.23,9.69,6.38Z"/><path class="cls-9" d="M553.42,2188.81c5.86,3.65,11.62,7.45,17.65,10.83,12,6.88,23.75,14.06,36,20.37l18.24,9.77,18.57,9.12,9.29,4.55c1.55.75,3.08,1.55,4.66,2.25l4.72,2.1,18.89,8.43A942.49,942.49,0,0,0,838,2308.8l10,2.43,5,1.22c1.67.41,3.34.83,5,1.15l20.23,4.13,10.12,2.06,2.53.52,2.55.42,5.09.84,20.37,3.37,5.09.85,2.55.41,2.56.32,10.24,1.31,20.48,2.6c1.71.24,3.42.4,5.13.54l5.14.46,10.28.92,10.28.91,5.14.46,2.57.23,2.58.13,20.61,1.06c6.87.33,13.74.8,20.62.8l20.63.31c3.44,0,6.88.14,10.32.11l10.31-.17c6.88-.12,13.76-.17,20.62-.54l10.31-.43c3.43-.15,6.87-.25,10.3-.52l20.58-1.38,6.65-.61c198.43-37.56,348.51-211.86,348.51-421.22,0-204.66-143.4-375.82-335.2-418.49-53.22-11.84-92.2-57.84-93.46-112.35,0-1.68-.06-3.37-.06-5.06s0-3.38.06-5.06c1.26-54.5,40.24-100.51,93.46-112.35,191.8-42.67,335.2-213.83,335.2-418.48a427.52,427.52,0,0,0-132.84-310.25q-39.24,5.71-77.92,14.57c-2.3.48-4.59,1.05-6.88,1.61l-6.87,1.69c-4.57,1.14-9.16,2.2-13.71,3.41l-13.65,3.7-6.82,1.86-6.77,2-13.55,4c-4.51,1.35-9,2.88-13.46,4.31l-6.72,2.18c-2.24.73-4.49,1.44-6.7,2.25l-13.33,4.68c-2.22.79-4.45,1.55-6.66,2.37l-6.61,2.5-13.21,5c-4.38,1.73-8.73,3.54-13.09,5.3s-8.64,3.56-13.21,5.32a157.85,157.85,0,0,1-113.61.43c-4.6-1.73-8.85-3.47-13.26-5.2s-8.74-3.5-13.13-5.18l-13.25-4.89L968.64,579c-2.21-.8-4.45-1.53-6.67-2.3l-13.36-4.56c-2.22-.78-4.47-1.48-6.71-2.18l-6.74-2.11c-4.49-1.39-9-2.88-13.47-4.19l-13.57-3.9-6.78-2L894.51,556l-13.64-3.59c-4.56-1.18-9.15-2.2-13.72-3.3l-6.87-1.63c-2.28-.55-4.57-1.1-6.88-1.56A981.84,981.84,0,0,0,742,528.1c-4.67-.52-9.36-.83-14-1.26s-9.37-.83-14.06-1.15l-14.08-.84-7-.42c-2.35-.14-4.7-.18-7-.28-9.39-.31-18.79-.75-28.19-.74l-14.09-.14-12.88.11-21.15,11.45-5.55,3-2.77,1.51-2.72,1.6-10.88,6.4-10.87,6.4c-1.81,1.08-3.64,2.12-5.43,3.22l-5.31,3.39-21.28,13.57c-1.79,1.11-3.5,2.33-5.24,3.52L534.18,581l-10.39,7.16c-3.45,2.41-7,4.73-10.36,7.2l-10.13,7.53-10.13,7.52-5.06,3.77c-1.69,1.24-3.3,2.6-4.95,3.9l-19.71,15.76c-3.33,2.57-6.45,5.4-9.66,8.12l-9.56,8.22-9.57,8.23L425.38,667l-9.27,8.56c-3.07,2.88-6.25,5.63-9.18,8.65L389,701.94c-1.49,1.49-3,2.93-4.47,4.45L380.2,711l-8.65,9.18-8.66,9.18c-2.86,3.08-5.58,6.3-8.37,9.44l-8.33,9.48L342,753c-1.38,1.59-2.8,3.14-4.11,4.79l-16,19.54A968.66,968.66,0,0,0,213.18,947a1002.2,1002.2,0,0,0-40.5,92.43L164,1063.09l-7.88,24-2,6-1.77,6.06-3.54,12.12-3.53,12.12-3.14,12.23-3.15,12.22c-.51,2-1.06,4.08-1.55,6.12l-1.37,6.17-5.45,24.65L126,1209.58c-.38,2.07-.8,4.13-1.15,6.2l-1,6.24L122,1234.5,120,1247l-1.52,12.54L117,1272.06l-.76,6.27-.55,6.29-2.2,25.17L112.09,1335c-.58,8.41-.56,16.84-.78,25.26l-.26,12.63c-.07,2.11,0,4.21,0,6.32l.1,6.32.38,25.27c.32,8.42.83,16.83,1.24,25.25l.65,12.62,1.11,12.59c.77,8.39,1.45,16.8,2.29,25.18l3.19,25.09.8,6.27.4,3.14.51,3.11,2.07,12.48,2.06,12.48,1,6.24c.35,2.08.82,4.13,1.23,6.2l5.06,24.79c.44,2.06.8,4.14,1.3,6.18l1.5,6.15,3,12.3,3,12.3c.46,2,1,4.08,1.61,6.11l1.72,6.09,6.85,24.37,7.75,24.1,1.94,6,1,3c.34,1,.72,2,1.07,3l4.32,11.91,4.31,11.9,2.16,6c.75,2,1.57,3.92,2.35,5.88l9.48,23.49c1.52,3.94,3.34,7.75,5,11.62l5.16,11.57,5.16,11.57c1.81,3.81,3.71,7.59,5.55,11.39l5.58,11.38,2.79,5.69c.93,1.89,1.85,3.8,2.87,5.64,15.45,29.78,32.44,58.74,50.62,87a969.77,969.77,0,0,0,267.16,267.23ZM187.56,1375.59c0-264.6,213.06-479.43,477-482.29,119.88-1.3,219.69,94.46,219.69,214.35,0,102.29-71.66,187.84-167.5,209.21A60,60,0,0,0,669.87,1375v1.18a60,60,0,0,0,46.86,58.14c95.84,21.38,167.49,106.93,167.5,209.21,0,119.9-99.81,215.65-219.69,214.35C400.62,1855,187.56,1640.19,187.56,1375.59Z"/></g><path class="cls-10" d="M1363.67,525.68c12.37-1.67,24.78-3.18,37.21-4.39a990.42,990.42,0,0,1,113.45-4.13h.26l.21.11a949.64,949.64,0,0,1,92.88,56.07,977.71,977.71,0,0,0-93.82-54.25l.46.12a1013.58,1013.58,0,0,0-113.06,5.86c-11.22,1.24-22.42,2.74-33.59,4.37"/></g><g id="Calque_7" data-name="Calque 7"><g class="cls-5"><path class="cls-11" d="M493.63,422.36q0-5.21.34-27.55t1-58.23q.63-35.88,1.18-81.43t1.15-96.52a65.12,65.12,0,0,0-.49-6.69,26.37,26.37,0,0,0-2-7.54,9.34,9.34,0,0,0-4.56-4.92q-3.07-1.46-9.65,1.4-13.18,5.72-17.92,18.41a60.89,60.89,0,0,0-3.26,27.7,92.44,92.44,0,0,0,7.07,27.88q1.37,3.13,2.48,5.27t2.38,4.18a13,13,0,0,1-11.41-.08,29.23,29.23,0,0,1-9.83-8,44.64,44.64,0,0,1-6.56-10.39,41.24,41.24,0,0,1-2.94-22.22,73.64,73.64,0,0,1,7.23-23.27A76.52,76.52,0,0,1,462.53,140a63,63,0,0,1,19.34-13.43q10.35-4.5,19.93-1.76T521.53,141q10.14,13.48,22.55,42,8.45,19.45,16.57,42t15.82,44.59q7.69,22,14.7,39.85a321.83,321.83,0,0,1-3.44-47q-.15-25.67,1.66-52T594,160.63q2.81-23.59,5.59-41.21t4.14-25.67a93.51,93.51,0,0,1,3.38-12.83,11.69,11.69,0,0,1,6.72-6.84,31,31,0,0,1,11-2.17q.25,6.61,1.17,19.44T629.79,122q3.29,21.32,8.83,47.81t12.2,53.43q6.67,26.94,13.76,50.14a370,370,0,0,0,13.64,38.27A76,76,0,0,0,683.48,322a41,41,0,0,0,4.66,6,80,80,0,0,1,6,7.29q-10.67,4.63-17.81,3.63t-12.37-7.87q-5.22-6.87-10.81-19.73Q636.91,274,627.87,227T611,128.61a250,250,0,0,0-6.24,37.58q-2.17,22-3.14,46.86t-1,49.27q0,24.44.71,45t2,33.81a24.07,24.07,0,0,0-2.1,2,6,6,0,0,1-2.06,1.26q-8.47,3.69-15.5-5.2t-14.93-27.07q-5.58-12.87-12.5-30.93t-14.15-37.3q-7.23-19.23-14-37t-12.23-30.3c-1.81-4.18-3.37-7.61-4.65-10.29s-2.49-5-3.61-7q.24,69.25,1.23,117.86t.7,79.31q-.28,30.71-3.89,46.44T493.63,422.36Z"/><path class="cls-12" d="M731.38,310.28a25.07,25.07,0,0,1-19.13-2.43q-8.84-5-12.34-18.93-3-12-1.15-27.05A134.06,134.06,0,0,1,706.51,231a159.28,159.28,0,0,1,14.9-29.84,109.67,109.67,0,0,1,20.41-24A59.2,59.2,0,0,1,766.2,164q12.93-3.24,23.27,1.38a22.59,22.59,0,0,1,13.17,15.91q2.08,8.29-1.65,12.41t-11,5.94c0-1.87-.1-3.91-.3-6.09a39.53,39.53,0,0,0-1-5.93,23.82,23.82,0,0,0-7-12.19q-5-4.54-14-2.3-9.28,2.32-17.28,11.22a92,92,0,0,0-14.24,21.92,155,155,0,0,0-10,27.38,146.58,146.58,0,0,0-4.69,27.63q-.9,13.29,1.52,22.9,3.26,12.93,12.21,10.68,7.62-1.9,14.79-11.3a138.73,138.73,0,0,0,13.82-22.87q6.66-13.49,12.29-27.6t9.75-25.73c.55-1.54.94-2.35,1.16-2.4a42,42,0,0,1,5.48,0,20.1,20.1,0,0,1,6.14,1.28,5.24,5.24,0,0,1,3.4,3.73q.75,3-.94,8.87t-3.68,13.45q-2,7.56-3.25,15.1a32.89,32.89,0,0,0,.22,13.52,20.68,20.68,0,0,0,5.12,9.12q3.86,4.14,9.83,2.64,9-2.25,20.26-19t19.64-46.73l4.15,2.48a121.69,121.69,0,0,1-10,36q-7.53,16.35-18.05,27.11t-22.46,13.75q-12.29,3.09-19.92-2.75a25.77,25.77,0,0,1-9.8-14.46,35,35,0,0,1-.8-4.56c-.2-1.72-.4-3.48-.63-5.31Q762.37,282,753,294.61T731.38,310.28Z"/><path class="cls-13" d="M976.49,277.55q-18.81.43-28.52-5.68t-10.05-20.82c0-.68.54-1,1.68-1.06a38.11,38.11,0,0,1,8.59,1.52q6.19,1.56,23.63,1.17a210.18,210.18,0,0,0,54.22-7.89q24.81-7.24,42.84-19.28t27.79-26.8q9.76-14.75,9.42-30.14-.33-14-8.38-22.39t-21-12.53a122.72,122.72,0,0,0-28-5.35,292.74,292.74,0,0,0-29.79-.87q-6.5.15-13.16.47c-4.44.22-8.6.36-12.48.45q-7.24,27.87-14.12,56.09T965,239.15a21.79,21.79,0,0,1-14.47-4.46q-5.92-4.65-6.08-11.5a32.74,32.74,0,0,1,1.49-9.61q1.59-5.51,2.86-10,1.89-6.89,6.66-23.08t11.63-37.89q6.87-21.7,15.22-45.51t17.25-46.57q8.89-22.78,17.39-40.42-14.29,2.71-24,7.38a118.17,118.17,0,0,0-15,8.38c-3.6,2.48-6.19,3.73-7.79,3.77a8.92,8.92,0,0,1-4.31-1.44,21,21,0,0,1-4.7-3.66c-1.4-1.45-2.11-2.74-2.14-3.89Q976,13.11,994.49,6.87T1039.67,0a185.75,185.75,0,0,1,25,1.31,92.09,92.09,0,0,1,26.16,6.94,50.72,50.72,0,0,1,20.55,16q8.1,10.61,8.51,28.38.38,16.76-6.54,28.71A61.28,61.28,0,0,1,1095,101.25,103.92,103.92,0,0,1,1070,114a172.42,172.42,0,0,1-26.87,7.11q25.34.8,41,6.25T1108,140.64q8.2,7.86,11.15,16.68a58.3,58.3,0,0,1,3.13,17,65.45,65.45,0,0,1-9.45,36.13,101.67,101.67,0,0,1-26.38,28.65A177,177,0,0,1,1050.33,260a221.41,221.41,0,0,1-39,12.86A178.59,178.59,0,0,1,976.49,277.55Zm18.69-157.11a245.38,245.38,0,0,0,37.34-5.12,127.32,127.32,0,0,0,33.77-12.22A69.93,69.93,0,0,0,1090.61,82q9.12-12.87,8.7-31.67-.4-17.77-9-27.17a44,44,0,0,0-21.84-12.85,101.51,101.51,0,0,0-28-3.13l-3.24.07a17.35,17.35,0,0,0-3.24.42,416.88,416.88,0,0,0-21.21,53.16Q1003.37,89.82,995.18,120.44Z"/><path class="cls-14" d="M1155.74,259q-13.27-1.32-18.91-10.3t-4.44-20.9q.78-7.81,4.86-19.45a237.87,237.87,0,0,1,10.15-24.25,182.48,182.48,0,0,1,13.52-23.57,86,86,0,0,1,15.33-17.55q7.88-6.6,14.68-5.93a8,8,0,0,1,5.09,2.4,7,7,0,0,1,1.65,5.84q-.4,4.08-6.6,12.74t-14.52,19.87a178.3,178.3,0,0,0-14.92,23.77,67.26,67.26,0,0,0-7.77,24.49q-1.21,12.25,2.46,16.75t12.18,5.34q11.57,1.16,25.83-9.11t31.78-37.74l2.72,3.71q-12.8,28.29-32.9,42.09T1155.74,259Zm56.39-151.8a17.62,17.62,0,0,1-9.43-3.69q-4-3.15-3.41-8.93.72-7.16,9.58-11.59t17-3.63a13.08,13.08,0,0,1,7.93,3.19c1.89,1.8,2.64,4.62,2.25,8.48q-.64,6.47-8.21,11.72A23,23,0,0,1,1212.13,107.15Z"/><path class="cls-15" d="M1230.44,269.34q-14.46-2.73-18.82-12.77t-2-22.82a75.65,75.65,0,0,1,7.41-20.88,104.07,104.07,0,0,1,12.84-19.16,61.65,61.65,0,0,1,15.41-13.45q8-4.75,15.09-3.42a13.6,13.6,0,0,1,3.44,1.17,32.67,32.67,0,0,1,3.3,1.84q-3.53,2.11-9.09,8.55a127.69,127.69,0,0,0-11,15,178.27,178.27,0,0,0-9.67,17.15,60.44,60.44,0,0,0-5.44,15q-1.9,10.1.61,15.26a10.53,10.53,0,0,0,7.88,6.18q7.07,1.33,18.23-4.39a118,118,0,0,0,22.8-15.72,51.76,51.76,0,0,1-10.79-23.09,67.83,67.83,0,0,1-.36-26.69A56.89,56.89,0,0,1,1278.1,167a37.4,37.4,0,0,1,14.21-13.51,28.21,28.21,0,0,1,18.92-2.53q13.77,2.59,17.09,10.88t1.22,19.38q-2.46,13.1-11.86,27.87a175.19,175.19,0,0,1-21.93,27.71,26.4,26.4,0,0,0,12.14,5.77,40.23,40.23,0,0,0,12.51.09,41.63,41.63,0,0,0,14.7-5.06,39.07,39.07,0,0,0,13.31-12.46l3.4,4.13q-9.7,14.53-23.2,18.77T1304,250.14a41.54,41.54,0,0,1-8.25-2.42,37.21,37.21,0,0,1-7.25-4,126.4,126.4,0,0,1-29.8,20.49Q1243.21,271.75,1230.44,269.34Zm58.72-40.1A145,145,0,0,0,1308,205.82q8.1-12.57,10.39-24.67,1.83-9.74-.17-14.82t-6.37-5.9q-6.72-1.26-15.62,7.15t-11.68,23.21a72.13,72.13,0,0,0-.85,20.2A44.89,44.89,0,0,0,1289.16,229.24Z"/><path class="cls-16" d="M1429,314.36q-11.42-3.6-15.28-11.26t-1-16.8a48.72,48.72,0,0,1,7-13.59q4.8-6.73,9.6-14a59.67,59.67,0,0,0,7.16-14.79q2.86-9.12.19-13.74a14,14,0,0,0-8.22-6.35q-10.12-3.18-23.18,1.87a124.39,124.39,0,0,0-26.89,14.85q-13.85,9.83-26.63,20.85T1329,281.15a29,29,0,0,1-9.38-4.92,16.51,16.51,0,0,1-5.66-7.69q.52-1.62,6.61-9t14.55-18.37q8.46-11,16.16-22.89a95.26,95.26,0,0,0,11.07-22.69,22.75,22.75,0,0,1,7.63-2.62,19.14,19.14,0,0,1,9.53.48q8.82,2.78,6.15,11.25-1.65,5.22-8.42,16.54t-15.56,23.25a320.13,320.13,0,0,1,28.1-20.39,128.67,128.67,0,0,1,30.25-14.7q15.17-4.91,27.57-1,12.72,4,15.56,14.92a39.29,39.29,0,0,1-.64,22,55.46,55.46,0,0,1-9.16,17.74q-6,7.62-11.92,14.54a42.82,42.82,0,0,0-8.5,15.07q-2.15,6.86-.25,10.5a10,10,0,0,0,6.15,5q8.14,2.55,18.72-2.55a110.94,110.94,0,0,0,21.93-14.44,227.59,227.59,0,0,0,21-19.57l2.26,5.37a173.29,173.29,0,0,1-24.25,23.57q-12.39,9.75-24.75,13.74A40,40,0,0,1,1429,314.36Z"/><path class="cls-17" d="M1568,372.57q-10.86-5.06-13.69-13.16t1.21-16.79a48.74,48.74,0,0,1,8.68-12.56q5.64-6,11.35-12.64a58.91,58.91,0,0,0,9-13.72q4-8.67,2-13.59a13.91,13.91,0,0,0-7.32-7.37q-9.62-4.49-23.22-1.18a124.14,124.14,0,0,0-28.6,11.21q-15,7.92-29.13,17.19t-25.08,16.62a29.24,29.24,0,0,1-8.67-6.11,16.42,16.42,0,0,1-4.59-8.36q.72-1.55,7.72-8.1t16.84-16.31q9.81-9.76,19-20.58a95.2,95.2,0,0,0,14-21.05,22.85,22.85,0,0,1,7.91-1.6,19.25,19.25,0,0,1,9.38,1.72q8.37,3.9,4.62,12-2.3,5-10.51,15.29t-18.46,21a316.61,316.61,0,0,1,30.53-16.54,127.78,127.78,0,0,1,31.91-10.62q15.67-2.9,27.46,2.59,12.09,5.63,13.48,16.84a39.26,39.26,0,0,1-3.52,21.75,55.2,55.2,0,0,1-11.4,16.39q-6.91,6.78-13.71,12.86a42.59,42.59,0,0,0-10.4,13.83q-3,6.51-1.62,10.37a10,10,0,0,0,5.44,5.74q7.76,3.61,18.9-.07a111.3,111.3,0,0,0,23.62-11.45,229.73,229.73,0,0,0,23.4-16.65l1.54,5.62a173.75,173.75,0,0,1-27.13,20.19,80.44,80.44,0,0,1-26.33,10.39A39.84,39.84,0,0,1,1568,372.57Z"/><path class="cls-18" d="M1632.48,417.16q-17.79-10.91-20.7-26.12t5.84-29.51q8-13.12,23.54-23.69a134.78,134.78,0,0,1,34.29-16.7,118,118,0,0,1,36.83-6.11q18,0,30.88,7.87a27.28,27.28,0,0,1,10.25,11.1q3.54,7-3.07,17.77A43.15,43.15,0,0,1,1731,368.61a79.66,79.66,0,0,1-27.84,6.81,120.77,120.77,0,0,1-30.93-1.89,112.63,112.63,0,0,1-28.89-9.48q-2.37,2.56-4.27,5a52.77,52.77,0,0,0-3.33,4.78,45.7,45.7,0,0,0-4.34,9.37,26.27,26.27,0,0,0-1.26,10.26,20.41,20.41,0,0,0,3.66,10.06,31.88,31.88,0,0,0,10,8.92q12.54,7.68,29.17,8a111.65,111.65,0,0,0,34.27-4.88,144.68,144.68,0,0,0,33.51-14.77l1.9,4.77a128,128,0,0,1-38.56,18.1,111.66,111.66,0,0,1-38.49,3.9A74.19,74.19,0,0,1,1632.48,417.16Zm15.72-57.76a149.18,149.18,0,0,0,22.53,3.17,151,151,0,0,0,26.52-.4,83.53,83.53,0,0,0,24.63-6.17,35.56,35.56,0,0,0,16.88-14.13,10.47,10.47,0,0,0,1.87-5.67c-.07-1.65-1.36-3.24-3.89-4.79q-7-4.29-18.18-3.72a88.88,88.88,0,0,0-23.83,4.86,145.7,145.7,0,0,0-24.92,11.21A113.2,113.2,0,0,0,1648.2,359.4Z"/><path class="cls-19" d="M1781.84,539.69q-13.65-12.95-16.23-24.13t7.53-21.85c.47-.5,1.12-.36,1.95.43a38.61,38.61,0,0,1,5,7.13q3.29,5.48,15.94,17.49a210.6,210.6,0,0,0,44,32.6q22.7,12.35,44,16.51t38.61.57q17.31-3.6,27.92-14.76,9.65-10.17,9.83-21.79t-6.05-23.67a123.75,123.75,0,0,0-16.1-23.53,292.93,292.93,0,0,0-20.52-21.6q-4.73-4.48-9.67-8.95t-9.17-8.47q-24.79,14.68-49.55,29.84t-48.6,28.85a21.88,21.88,0,0,1-7.13-13.36q-.92-7.49,3.79-12.44a32.51,32.51,0,0,1,7.84-5.77l9.06-5.07q6.2-3.56,21-11.68t35-18.69q20.16-10.58,42.87-21.56t45.06-20.89q22.35-9.9,40.82-16.43a97.21,97.21,0,0,0-22.2-11.64,118.06,118.06,0,0,0-16.57-4.65c-4.3-.78-7-1.71-8.18-2.81a8.84,8.84,0,0,1-2-4.06,20.58,20.58,0,0,1-.76-5.91c0-2,.43-3.43,1.22-4.26q17.34,6.56,34.87,15.18t36.87,27A186.15,186.15,0,0,1,2039,405.85a92.46,92.46,0,0,1,13.67,23.36A50.75,50.75,0,0,1,2056,455q-1.71,13.23-14,26.13-11.55,12.15-24.87,15.77a61.52,61.52,0,0,1-27.07,1.18,103.32,103.32,0,0,1-26.72-8.62,170.73,170.73,0,0,1-24.07-13.88q17.42,18.42,24.7,33.34t7.58,26.3q.28,11.35-3.84,19.7a58.14,58.14,0,0,1-9.79,14.28,65.38,65.38,0,0,1-32.17,19,101.76,101.76,0,0,1-38.9,1.74,177.35,177.35,0,0,1-40.32-10.69,221.06,221.06,0,0,1-36.77-18.4A178.25,178.25,0,0,1,1781.84,539.69Zm124-98.31a243.74,243.74,0,0,0,30.11,22.68,126.74,126.74,0,0,0,32.57,15.12,69.8,69.8,0,0,0,32.11,2.19q15.53-2.7,28.49-16.35,12.23-12.88,12.76-25.61a44,44,0,0,0-6.45-24.51A101.12,101.12,0,0,0,2017.77,393l-2.35-2.24a18.31,18.31,0,0,0-2.6-2,419.28,419.28,0,0,0-52.51,22.78Q1933.22,425.42,1905.81,441.38Z"/><path class="cls-20" d="M1921.26,652.4q-7.15-9.18-3.23-21.12a42.19,42.19,0,0,1,14.72-20.35,96,96,0,0,1,20.07-11.52A227.41,227.41,0,0,1,1978,590a118.94,118.94,0,0,1,22.55-5q9.63-1,11.94,2,1,1.35,2.09,5.74a20.33,20.33,0,0,1,.29,8.44,149.06,149.06,0,0,0-19.7,3.65,200.68,200.68,0,0,0-26.12,8.21,88.62,88.62,0,0,0-22.49,12.32,73.89,73.89,0,0,0-6.19,5.69,24.53,24.53,0,0,0-5.86,8.9,9,9,0,0,0,1.54,9.21q4,5.11,13.46,6.42a105.09,105.09,0,0,0,22.13.31q12.67-1,26.39-3.42t26.07-4.93l20.62-4.14q1,1.83,2.61,5.56a34.67,34.67,0,0,1,2.25,7.35q.65,3.62-1.78,5.5c-.72.57-3.81,1.52-9.25,2.88s-12,3.09-19.78,5.22a235.41,235.41,0,0,0-22.61,7.43,69.64,69.64,0,0,0-17.76,9.49c-3.23,2.52-5.32,5.23-6.24,8.12s-.13,6,2.39,9.19q4.41,5.67,15.85,9.77t27.79,4.79a134.26,134.26,0,0,0,35.17-3.55l.31,5.4a119.42,119.42,0,0,1-37.33,5.23q-18.35-.45-32.54-5.87T1962,704.74q-5.46-7-6-13.3a18.61,18.61,0,0,1,2.66-11.61,34.94,34.94,0,0,1,8.61-9.53,53,53,0,0,1,7-4.61q3.79-2.09,7.93-4a183.49,183.49,0,0,1-24.79,2.4,72.49,72.49,0,0,1-21.52-2.31A27.25,27.25,0,0,1,1921.26,652.4Z"/><path class="cls-21" d="M2007.38,767.38q-7.45-12.68-2-23.25t18.45-18.21q14.16-8.32,36.72-14.48a428.31,428.31,0,0,1,49.22-10.13q26.63-4,53.19-5.73t49.43-1.32q22.88.4,38,3.21t18.1,7.8q1.91,3.24-.56,7.47a38.66,38.66,0,0,1-6.94,8.45,49.12,49.12,0,0,1-8.59,6.65q-7.95,4.7-23.11,8.26a281.66,281.66,0,0,1-35.19,5.64,345.44,345.44,0,0,1-41.9,1.65,373,373,0,0,1-43.46-3.37,190.43,190.43,0,0,1-39.84-9.68q-9,2.91-17.12,6.31A121.81,121.81,0,0,0,2036.9,744q-22.7,13.37-15.05,26.33,4.17,7.08,14.46,10.73a92.12,92.12,0,0,0,23.63,4.74,157,157,0,0,0,26.9-.16,295,295,0,0,1,38.06-10.51q21-4.44,43.21-7.19t43.44-3.75q21.22-1,38.77-.21t29.07,3.52q11.54,2.73,14.13,7.15c1.28,2.16,1.09,4.65-.55,7.48a38.61,38.61,0,0,1-6.94,8.45,49.14,49.14,0,0,1-8.59,6.64q-9.72,5.73-28.44,10a253.51,253.51,0,0,1-42.16,5.58,295.55,295.55,0,0,1-48.71-1.48,202.91,202.91,0,0,1-48.06-11.19q-9,2.93-17.13,6.31a123.84,123.84,0,0,0-14.9,7.39q-22.7,13.36-15.05,26.34,4.68,7.95,16.36,11.6a102.91,102.91,0,0,0,26.51,4.23,182.75,182.75,0,0,0,29.28-1.17l.24,5.81q-32,3-54.74-2.29t-32.12-21.18q-8.32-14.15-.84-25.7t24.26-19.45q-23.46-.08-40.19-5.9T2007.38,767.38Zm73.13-40.29a228.26,228.26,0,0,0,35.53,6.06,379.63,379.63,0,0,0,38.52,1.72q19.39-.09,36.77-1.6a240.5,240.5,0,0,0,30.21-4.3q12.84-2.81,18.74-6.27,2.94-1.74,3.39-3a2.27,2.27,0,0,0,.11-1.84q-1.4-2.37-12.29-3.68a267.35,267.35,0,0,0-28.09-1.52q-17.19-.2-38.08,1.39t-42.83,4.79A414.79,414.79,0,0,0,2080.51,727.09Zm41.14,69.84a235.8,235.8,0,0,0,42.56,6.89,320,320,0,0,0,42.26.31,256,256,0,0,0,35.88-4.45q15.57-3.23,22.94-7.56,2.94-1.74,3.39-3a2.27,2.27,0,0,0,.11-1.84q-1.74-3-15.4-4.23a270.31,270.31,0,0,0-35-.43,464.09,464.09,0,0,0-46.62,4.43A473.52,473.52,0,0,0,2121.65,796.93Z"/><path class="cls-22" d="M2080.93,911.73q-8.47-19.07-2.23-33.25t21.55-21q14.07-6.24,32.82-6.15a134.67,134.67,0,0,1,37.71,5.7,118,118,0,0,1,33.81,15.86q14.84,10.26,20.95,24a27.27,27.27,0,0,1,2.15,15q-1.05,7.77-12.61,12.9a43.06,43.06,0,0,1-25.48,2.9,79.64,79.64,0,0,1-26.78-10.18,121.11,121.11,0,0,1-24.4-19.11A112.7,112.7,0,0,1,2120,874.17q-3.41.75-6.36,1.7a53.31,53.31,0,0,0-5.45,2,44.81,44.81,0,0,0-8.89,5.26,26.16,26.16,0,0,0-6.86,7.73,20.38,20.38,0,0,0-2.7,10.37,32,32,0,0,0,3.16,13q6,13.44,19.46,23.17a111.77,111.77,0,0,0,31,15.43,144.83,144.83,0,0,0,36,6.85l-1.15,5a127.75,127.75,0,0,1-42-7,111.44,111.44,0,0,1-33.91-18.62A74.06,74.06,0,0,1,2080.93,911.73Zm45.71-38.64a158.88,158.88,0,0,0,38.82,30.1,83.28,83.28,0,0,0,23.79,8.9,35.58,35.58,0,0,0,21.91-2.06,10.53,10.53,0,0,0,4.76-3.61c.88-1.39.71-3.44-.49-6.15q-3.33-7.5-12.86-13.37a88.57,88.57,0,0,0-22.38-9.52,145.49,145.49,0,0,0-26.88-4.91A113.25,113.25,0,0,0,2126.64,873.09Z"/></g></g></g></svg>