<?xml version="1.0" encoding="UTF-8"?><svg xmlns="http://www.w3.org/2000/svg" viewBox="0 0 511.98 511.99"><defs><style>.d{fill:#f8f6f0;}</style></defs><g id="a"/><g id="b"><g id="c"><path class="d" d="M511.6,36.85l-64,415.1c-1.5,9.73-7.38,18.22-15.97,23.05-4.84,2.72-10.27,4.1-15.68,4.1-4.19,0-8.32-.82-12.29-2.47l-122.6-51.1-50.86,76.29c-3.9,6.67-10.4,10.17-17.4,10.17-11.5,0-20.8-9.3-20.8-20.8v-96.18c0-7.11,2.37-14.03,6.74-19.64L416,95.99,122.3,360.29l-102.61-42.8c-11.25-4.7-18.88-15.3-19.63-28.4s5.47-23.72,16.06-29.77L464.12,4.22c10.69-6.11,23.88-5.55,34,1.41s15.38,19.08,13.48,31.22Z"/></g></g></svg>