<svg xmlns="http://www.w3.org/2000/svg" viewBox="0 0 164.67 125.35"><defs><style>.cls-1{fill:#088c9b;}.cls-2{fill:#ef7d54;}</style></defs><g id="Calque_2" data-name="Calque 2"><g id="I_page_6" data-name="I page 6"><path class="cls-1" d="M67.07,117.51A58.75,58.75,0,0,1,25.52,17.21,58.76,58.76,0,0,1,125.54,53H144.8V64.53H114.26V58.75A47.2,47.2,0,1,0,67.07,106Z"/><rect class="cls-1" x="17.27" y="94.42" width="10.01" height="17.3" transform="translate(-66.35 45.94) rotate(-45)"/><rect class="cls-1" x="4.65" y="107.04" width="10.01" height="17.3" transform="translate(-78.98 40.71) rotate(-45)"/><path class="cls-2" d="M82,79.19a27,27,0,0,0,3.51-3,25.44,25.44,0,0,0,3.14-3.8L98.2,75l4.37-16.75L93,55.7a26.18,26.18,0,0,0-2.51-9.14l7-7.05L85.11,27.35l-7,7.06A25.93,25.93,0,0,0,69,32l-2.64-9.57L49.66,27.05l2.63,9.56a26.26,26.26,0,0,0-3.51,3,25.55,25.55,0,0,0-3.14,3.8L36,40.85,31.68,57.6l9.6,2.5a25.84,25.84,0,0,0,2.5,9.13l-7,7.06L49.14,88.44l7-7a25.93,25.93,0,0,0,9.17,2.38l2.63,9.57,16.68-4.59ZM67.38,69.73l-.88-3.2a8.65,8.65,0,0,1-3.06-.79l-2.32,2.35L57,64l2.32-2.36a8.62,8.62,0,0,1-.84-3l-3.2-.83,1.46-5.59,3.2.84a7.87,7.87,0,0,1,1-1.27,9,9,0,0,1,1.17-1l-.88-3.19,5.57-1.53.88,3.19a8.67,8.67,0,0,1,3.06.8l2.32-2.36,4.11,4.06-2.32,2.36a8.63,8.63,0,0,1,.84,3L79,58l-1.46,5.59-3.2-.84A8.33,8.33,0,0,1,73.24,64a8.22,8.22,0,0,1-1.17,1L73,68.19Z"/><polygon class="cls-1" points="144.46 70.43 144.46 47.08 164.68 58.75 144.46 70.43"/></g></g></svg>