<svg xmlns="http://www.w3.org/2000/svg" xmlns:xlink="http://www.w3.org/1999/xlink" viewBox="0 0 677.74 165.75"><defs><style>.cls-1{opacity:0.5;}.cls-2{fill:url(#Dégradé_sans_nom_14);}.cls-3{fill:url(#Dégradé_sans_nom_14-2);}.cls-4{fill:url(#Dégradé_sans_nom_14-3);}.cls-5{fill:url(#Dégradé_sans_nom_14-4);}.cls-6{fill:url(#Dégradé_sans_nom_14-5);}.cls-7{fill:url(#Dégradé_sans_nom_14-6);}.cls-8{fill:#dcdddb;}</style><linearGradient id="Dégradé_sans_nom_14" x1="5.28" y1="83.2" x2="665.02" y2="79.11" gradientUnits="userSpaceOnUse"><stop offset="0" stop-color="#e46c73"/><stop offset="0.25" stop-color="#cb66ae"/><stop offset="0.5" stop-color="#59bfcb"/><stop offset="0.75" stop-color="#e7c07b"/><stop offset="1" stop-color="#a2d17a"/></linearGradient><linearGradient id="Dégradé_sans_nom_14-2" x1="5.29" y1="84.04" x2="665.03" y2="79.96" xlink:href="#Dégradé_sans_nom_14"/><linearGradient id="Dégradé_sans_nom_14-3" x1="5.29" y1="84.84" x2="665.03" y2="80.76" xlink:href="#Dégradé_sans_nom_14"/><linearGradient id="Dégradé_sans_nom_14-4" x1="5.29" y1="85.32" x2="665.04" y2="81.23" xlink:href="#Dégradé_sans_nom_14"/><linearGradient id="Dégradé_sans_nom_14-5" x1="5.3" y1="85.94" x2="665.04" y2="81.85" xlink:href="#Dégradé_sans_nom_14"/><linearGradient id="Dégradé_sans_nom_14-6" x1="5.3" y1="86.74" x2="665.05" y2="82.65" xlink:href="#Dégradé_sans_nom_14"/></defs><g id="Calque_2" data-name="Calque 2"><g id="Calque_1-2" data-name="Calque 1"><g class="cls-1"><path class="cls-2" d="M71.75,165.75h-28C30,165.75,19.12,162,11.5,154.54S0,136.3,0,122.5V43.25c0-13.8,3.87-24.58,11.5-32S30,0,43.75,0h28C85.53,0,96.38,3.77,104,11.21s11.5,18.24,11.5,32V122.5c0,13.8-3.87,24.58-11.5,32S85.53,165.75,71.75,165.75ZM43.75,5C31.32,5,21.64,8.29,15,14.79S5,30.84,5,43.25V122.5c0,12.41,3.36,22,10,28.46s16.32,9.79,28.75,9.79h28c12.43,0,22.1-3.29,28.75-9.79s10-16.06,10-28.46V43.25c0-12.4-3.36-22-10-28.46S84.18,5,71.75,5ZM66.5,138.25H48.75c-6.1,0-10.37-1.35-13-4.14s-4-7.05-4-13.11V44.75c0-6.06,1.29-10.35,4-13.11s6.95-4.14,13-4.14H66.5c6.08,0,10.38,1.34,13.14,4.11s4.11,7.06,4.11,13.14V121c0,6.08-1.34,10.38-4.11,13.14S72.58,138.25,66.5,138.25ZM48.75,32.5c-4.6,0-7.78.88-9.45,2.61s-2.55,5-2.55,9.64V121c0,4.64.86,7.88,2.55,9.64s4.85,2.61,9.45,2.61H66.5c4.62,0,7.85-.89,9.61-2.64s2.64-5,2.64-9.61V44.75c0-4.62-.89-7.85-2.64-9.61s-5-2.64-9.61-2.64Z"/><path class="cls-3" d="M245.25,165.75H227a10.85,10.85,0,0,1-10.24-6.38L170.5,73.32V158c0,4.85-2.9,7.75-7.75,7.75H142c-4.86,0-7.75-2.9-7.75-7.75V7.75C134.25,2.9,137.14,0,142,0h18.75c5.61,0,8.12,2.65,9.23,4.88l46.77,87.74V7.75c0-4.85,2.89-7.75,7.75-7.75h20.75C250.1,0,253,2.9,253,7.75V158C253,162.85,250.1,165.75,245.25,165.75Zm-79.75-103h5l50.71,94.32a5.89,5.89,0,0,0,5.8,3.68h18.25c2.1,0,2.75-.64,2.75-2.75V7.75c0-2.11-.65-2.75-2.75-2.75H224.5c-2.11,0-2.75.64-2.75,2.75v95.5h-5L165.54,7.18c-.48-1-1.47-2.18-4.79-2.18H142c-2.11,0-2.75.64-2.75,2.75V158c0,2.11.64,2.75,2.75,2.75h20.75c2.1,0,2.75-.64,2.75-2.75Z"/><path class="cls-4" d="M364.24,165.75H282c-4.85,0-7.75-2.9-7.75-7.75V7.75C274.24,2.9,277.14,0,282,0h21.25C308.1,0,311,2.9,311,7.75v125c0,.09,0,.16,0,.21a2.55,2.55,0,0,0,.49,0h52.75c4.7,0,7.5,3,7.5,8v17C371.74,162.85,368.94,165.75,364.24,165.75ZM282,5c-2.1,0-2.75.64-2.75,2.75V158c0,2.11.65,2.75,2.75,2.75h82.25c1.73,0,2.5-.4,2.5-2.75V141c0-2.79-1-3-2.5-3H311.49c-3.39,0-5.5-2-5.5-5.25V7.75c0-2.11-.64-2.75-2.75-2.75Z"/><path class="cls-5" d="M410.49,165.75H389.24c-4.85,0-7.75-2.9-7.75-7.75V7.75c0-4.85,2.9-7.75,7.75-7.75h21.25c4.85,0,7.75,2.9,7.75,7.75V158C418.24,162.85,415.34,165.75,410.49,165.75ZM389.24,5c-2.11,0-2.75.64-2.75,2.75V158c0,2.11.64,2.75,2.75,2.75h21.25c2.11,0,2.75-.64,2.75-2.75V7.75c0-2.11-.64-2.75-2.75-2.75Z"/><path class="cls-6" d="M551.74,165.75H533.49a10.87,10.87,0,0,1-10.24-6.38L477,73.32V158c0,4.85-2.9,7.75-7.75,7.75H448.49c-4.85,0-7.75-2.9-7.75-7.75V7.75c0-4.85,2.9-7.75,7.75-7.75h18.75c5.61,0,8.12,2.65,9.24,4.88l46.76,87.74V7.75C523.24,2.9,526.14,0,531,0h20.75c4.85,0,7.75,2.9,7.75,7.75V158C559.49,162.85,556.59,165.75,551.74,165.75ZM472,62.75h5l50.7,94.32a5.9,5.9,0,0,0,5.8,3.68h18.25c2.11,0,2.75-.64,2.75-2.75V7.75c0-2.11-.64-2.75-2.75-2.75H531c-2.11,0-2.75.64-2.75,2.75v95.5h-5L472,7.18c-.49-1-1.48-2.18-4.8-2.18H448.49c-2.11,0-2.75.64-2.75,2.75V158c0,2.11.64,2.75,2.75,2.75h20.75c2.11,0,2.75-.64,2.75-2.75Z"/><path class="cls-7" d="M670.24,165.75H588.49c-4.85,0-7.75-2.9-7.75-7.75V7.75c0-4.85,2.9-7.75,7.75-7.75h81.75c4.7,0,7.5,2.9,7.5,7.75v17c0,4.85-2.8,7.75-7.5,7.75H618a2.55,2.55,0,0,0-.49,0,1.22,1.22,0,0,0,0,.21v32.5a1.22,1.22,0,0,0,0,.21,2.55,2.55,0,0,0,.49,0h42.75c4.85,0,7.75,2.9,7.75,7.75v17c0,4.85-2.9,7.75-7.75,7.75H618a2.55,2.55,0,0,0-.49,0,1.22,1.22,0,0,0,0,.21V133a1.22,1.22,0,0,0,0,.21,2.55,2.55,0,0,0,.49,0h52.25c4.7,0,7.5,2.9,7.5,7.75v17C677.74,162.85,674.94,165.75,670.24,165.75ZM588.49,5c-2.11,0-2.75.64-2.75,2.75V158c0,2.11.64,2.75,2.75,2.75h81.75c1.73,0,2.5-.4,2.5-2.75V141c0-2.35-.77-2.75-2.5-2.75H618c-3.39,0-5.5-2-5.5-5.25V98.25C612.49,95,614.6,93,618,93h42.75c2.11,0,2.75-.64,2.75-2.75v-17c0-2.11-.64-2.75-2.75-2.75H618c-3.39,0-5.5-2-5.5-5.25V32.75c0-3.24,2.11-5.25,5.5-5.25h52.25c1.73,0,2.5-.4,2.5-2.75v-17c0-2.35-.77-2.75-2.5-2.75Z"/></g></g><g id="Calque_2-2" data-name="Calque 2"><path class="cls-8" d="M114.82,75.66a7,7,0,0,0-1-2.74,8,8,0,0,0-2.08-2.22,10.2,10.2,0,0,0-2.86-1.48,10.4,10.4,0,0,0-3.35-.54,12.49,12.49,0,0,0-2.94.33,7.41,7.41,0,0,0-2.39,1,5.09,5.09,0,0,0-1.62,1.77,5.19,5.19,0,0,0-.6,2.57,4.89,4.89,0,0,0,.81,3,6.48,6.48,0,0,0,2.07,1.81,12.58,12.58,0,0,0,2.81,1.12c1,.28,2,.58,3,.91L118.06,85a18.7,18.7,0,0,1,4.44,2.29,15,15,0,0,1,3.59,3.53,16.67,16.67,0,0,1,2.39,4.77,19.71,19.71,0,0,1,.87,6.06,20.32,20.32,0,0,1-1.68,8.35,18.8,18.8,0,0,1-4.71,6.48,21.6,21.6,0,0,1-7.27,4.19,29.74,29.74,0,0,1-16.22.69A22.6,22.6,0,0,1,93.6,119,19.64,19.64,0,0,1,89,115.34a16.2,16.2,0,0,1-3.12-4.84H81.55V98h15v2.57a9.62,9.62,0,0,0,.6,3.45,7.43,7.43,0,0,0,1.8,2.74,8.26,8.26,0,0,0,3,1.81,12.79,12.79,0,0,0,4.27.64,8.34,8.34,0,0,0,5.69-1.72,6.07,6.07,0,0,0,2-4.8,4.76,4.76,0,0,0-.68-2.64,6.25,6.25,0,0,0-1.77-1.78,12.3,12.3,0,0,0-2.4-1.23c-.89-.33-1.76-.63-2.62-.91L97,93.06a24,24,0,0,1-5.21-2.33A17.63,17.63,0,0,1,87.31,87a17.45,17.45,0,0,1-3.08-5.26,19.29,19.29,0,0,1-1.14-6.87,18.41,18.41,0,0,1,1.66-8A16.65,16.65,0,0,1,89.4,61a20.78,20.78,0,0,1,7.1-3.66,31,31,0,0,1,9-1.24,27.4,27.4,0,0,1,7.15.89,24.87,24.87,0,0,1,5.87,2.39,19,19,0,0,1,4.4,3.42,15.3,15.3,0,0,1,2.77,4h4.15V79.31h-15Z"/><path class="cls-8" d="M154.93,77.86H176V89.24H172.7l6.19,16.11,6.35-16.11h-3.69V77.86h21.09V89.24H198L181.3,129.06h7.39v11.38H162V129.06h7.52l3.24-8.18L159.29,89.24h-4.36Z"/><path class="cls-8" d="M229,77.86H248.7V81.6a21.51,21.51,0,0,1,6-3.37A19.31,19.31,0,0,1,261.53,77a18.92,18.92,0,0,1,8.41,1.72,12.6,12.6,0,0,1,5.5,5.25,20.24,20.24,0,0,1,3.09-2.8,23.1,23.1,0,0,1,3.68-2.2,20.48,20.48,0,0,1,4.09-1.45,18.23,18.23,0,0,1,4.38-.52q7.89,0,12.13,4.36T307,94.1v15.4h6.1v11.38H293.5V96.21a8.22,8.22,0,0,0-1.89-5.73,6.75,6.75,0,0,0-5.25-2.07,9.07,9.07,0,0,0-4.38,1.1,13.17,13.17,0,0,0-4.09,3.8c0,.3,0,.61,0,.93V109.5h6.23v11.38H264.52V96.13A8.84,8.84,0,0,0,264,93a7,7,0,0,0-1.5-2.4A6.63,6.63,0,0,0,260.22,89a7.88,7.88,0,0,0-2.89-.6,10.2,10.2,0,0,0-4.29.91,11.18,11.18,0,0,0-4.26,3.53V109.5h6.89v11.38H228.93V109.5h6.39V89.24H229Z"/><path class="cls-8" d="M358.41,77.86h7.85V88.74h-7.85V109.5h7.93v11.38h-26.7V109.5h6.43V88.74h-6.51V77.86h6.51V70.72a15.75,15.75,0,0,1,1.33-6.65A14.39,14.39,0,0,1,351,59.26a14.87,14.87,0,0,1,5.13-2.95,18.55,18.55,0,0,1,6.11-1,23.32,23.32,0,0,1,4.23.35,19.47,19.47,0,0,1,3.28.9,13,13,0,0,1,2.39,1.16,10.88,10.88,0,0,1,1.56,1.16l-4.78,8.76a7.89,7.89,0,0,0-2.16-1.12,9.26,9.26,0,0,0-2.94-.41,5.8,5.8,0,0,0-2.1.37,4.85,4.85,0,0,0-2.85,2.85,6.87,6.87,0,0,0-.41,2.47Z"/><path class="cls-8" d="M394.49,99.2a22.7,22.7,0,0,1,1.71-8.8,22,22,0,0,1,12-12,24.69,24.69,0,0,1,18.46,0,22.17,22.17,0,0,1,7.24,4.86,21.94,21.94,0,0,1,4.71,7.18,22.87,22.87,0,0,1,1.69,8.8,23.81,23.81,0,0,1-1.64,8.83,21.61,21.61,0,0,1-11.88,12.1,25.5,25.5,0,0,1-18.77,0,21.68,21.68,0,0,1-7.2-4.86,21.46,21.46,0,0,1-4.63-7.2A23.67,23.67,0,0,1,394.49,99.2Zm12.42,0a12,12,0,0,0,.83,4.51,11.28,11.28,0,0,0,2.26,3.55,10.44,10.44,0,0,0,3.33,2.33,10,10,0,0,0,4.05.83,10.3,10.3,0,0,0,4.09-.81,9.68,9.68,0,0,0,3.28-2.31,11.09,11.09,0,0,0,2.18-3.55,12.74,12.74,0,0,0,.79-4.55,13.19,13.19,0,0,0-.79-4.65A10.58,10.58,0,0,0,424.75,91a9.44,9.44,0,0,0-3.28-2.22,10.43,10.43,0,0,0-4.09-.73,10.3,10.3,0,0,0-4.05.73A9.83,9.83,0,0,0,410,91a10.75,10.75,0,0,0-2.26,3.53A12.54,12.54,0,0,0,406.91,99.2Z"/><path class="cls-8" d="M503.17,96.13a8,8,0,0,0-1.91-5.67,6.61,6.61,0,0,0-5.07-2,11,11,0,0,0-4.36,1,11.64,11.64,0,0,0-4.28,3.57V109.5h7v11.38H467.79V109.5h6.31V89.24h-6.23V77.86h19.6v3.78a21.79,21.79,0,0,1,6-3.34,20.25,20.25,0,0,1,7-1.23q7.77,0,12,4.34t4.2,12.69v15.4h6.1v11.38H503.17Z"/><path class="cls-8" d="M548.47,77.86h21.1V89.24h-3.32l6.18,16.11,6.36-16.11h-3.7V77.86h21.1V89.24h-4.7l-16.65,39.82h7.39v11.38h-26.7V129.06h7.52l3.24-8.18L552.83,89.24h-4.36Z"/></g></g></svg>