<?xml version="1.0" encoding="UTF-8"?><svg id="Calque_2" xmlns="http://www.w3.org/2000/svg" viewBox="0 0 1384.77 393.74"><defs><style>.cls-1{fill:#112f4b;}.cls-2{fill:#131312;}</style></defs><g id="pour_APSEM"><g id="Logo-fond-blanc"><g><path class="cls-1" d="M679.36,104.43c-.91-16.63,4.36-22.34,6.09-24.22,7.18-7.78,21.15-9.85,25.48-9.96l-.4-33.66V2.94c-4.57,0-45.43,.86-73.79,30.81-12.36,13.06-26.67,36.56-24.6,74.36,2.36,43.12-3.37,47.31-33.61,49.51l4.88,67.14c102.11-7.43,97.63-89.45,95.94-120.32Z"/><path class="cls-1" d="M1080.58,107.9c0-20.76,15.42-37.65,34.39-37.65s34.38,16.89,34.38,37.65v99.61h67.32V107.9c0-20.76,15.42-37.65,34.39-37.65s34.38,16.89,34.38,37.65v99.61h67.32V107.9c0-57.88-45.62-104.96-101.7-104.96-26.14,0-50.01,10.24-68.04,27.03-18.03-16.79-41.9-27.03-68.04-27.03-56.08,0-101.7,47.09-101.7,104.96v99.61h67.32V107.9Z"/><path class="cls-1" d="M1384.77,247.11H851.15c-8.87-5.29-14.71-14.22-14.71-24.32,0-16.2,15.02-29.39,33.47-29.39h93.78V126.09h-93.78c-18.46,0-33.47-13.19-33.47-29.39s15.02-29.39,33.47-29.39h93.78V0h-93.78c-55.58,0-100.79,43.38-100.79,96.7,0,24.09,9.29,46.1,24.53,63.05-15.24,16.95-24.53,38.96-24.53,63.05,0,8.41,1.24,16.53,3.35,24.32H390.66V70.25h25.95c25.04,0,45.42,20.37,45.42,45.41s-20.37,45.41-45.42,45.41h-9.33v67.32h9.33c62.16,0,112.73-50.57,112.73-112.73S478.77,2.94,416.61,2.94h-93.27V247.11h-57.08V121.97c0-65.64-47.75-119.04-106.45-119.04S53.36,56.34,53.36,121.97v119.04H182.53v-67.32h-61.86v-51.72c0-28.04,17.92-51.72,39.14-51.72s39.14,23.68,39.14,51.72v125.14H0v14.42H198.95l-.95,40.98h67.32l.95-40.98h57.08l-.95,40.98h67.32l.95-40.98h386.98c7.38,16.12,19.22,29.91,34,40.01H0v14.42H843.33c8.49,2.23,17.37,3.53,26.59,3.53h93.78v-57.96h421.07v-14.42Z"/></g><g><path class="cls-2" d="M994.56,313.31h-4.27v-40.39h27.7v3.69h-23.43v36.7Zm-.46-20.83h21.35v3.69h-21.35v-3.69Z"/><path class="cls-2" d="M1048.8,313.6c-2.96,0-5.6-.66-7.9-1.99-2.31-1.33-4.14-3.16-5.48-5.51-1.35-2.35-2.02-5-2.02-7.96s.67-5.71,2.02-8.02c1.35-2.31,3.17-4.12,5.48-5.42,2.31-1.31,4.94-1.96,7.9-1.96s5.66,.66,7.99,1.99c2.33,1.33,4.15,3.14,5.48,5.42,1.33,2.29,1.99,4.95,1.99,7.99s-.66,5.66-1.99,7.99c-1.33,2.33-3.16,4.15-5.51,5.48-2.35,1.33-5,1.99-7.96,1.99Zm0-3.64c2.19,0,4.13-.49,5.83-1.47,1.69-.98,3.03-2.37,4.01-4.15,.98-1.79,1.47-3.86,1.47-6.2s-.49-4.46-1.47-6.23c-.98-1.77-2.32-3.14-4.01-4.13-1.69-.98-3.62-1.47-5.77-1.47s-4.08,.49-5.77,1.47c-1.69,.98-3.04,2.36-4.04,4.13-1,1.77-1.5,3.85-1.5,6.23s.5,4.41,1.5,6.2c1,1.79,2.34,3.17,4.01,4.15,1.67,.98,3.59,1.47,5.74,1.47Z"/><path class="cls-2" d="M1084.17,313.31v-30.29h3.92v8.25l-.4-1.44c.85-2.31,2.27-4.07,4.27-5.28,2-1.21,4.48-1.82,7.44-1.82v3.98c-.15,0-.31,0-.46-.03-.15-.02-.31-.03-.46-.03-3.19,0-5.69,.97-7.5,2.91-1.81,1.94-2.71,4.7-2.71,8.28v15.46h-4.1Z"/><path class="cls-2" d="M1156.23,282.73c2.46,0,4.61,.47,6.43,1.41,1.83,.94,3.25,2.38,4.27,4.3,1.02,1.92,1.53,4.35,1.53,7.27v17.6h-4.1v-17.19c0-3.19-.76-5.61-2.28-7.24-1.52-1.63-3.66-2.45-6.43-2.45-2.08,0-3.88,.43-5.39,1.3-1.52,.87-2.69,2.12-3.52,3.75-.83,1.64-1.24,3.61-1.24,5.91v15.92h-4.1v-17.19c0-3.19-.77-5.61-2.31-7.24-1.54-1.63-3.69-2.45-6.46-2.45-2.04,0-3.83,.43-5.37,1.3-1.54,.87-2.72,2.12-3.55,3.75-.83,1.64-1.24,3.61-1.24,5.91v15.92h-4.1v-30.29h3.92v8.19l-.63-1.44c.92-2.19,2.41-3.91,4.47-5.16,2.06-1.25,4.49-1.88,7.3-1.88,2.96,0,5.48,.74,7.56,2.22,2.08,1.48,3.42,3.7,4.04,6.66l-1.62-.63c.88-2.46,2.45-4.45,4.7-5.97,2.25-1.52,4.95-2.28,8.11-2.28Z"/><path class="cls-2" d="M1199.68,313.6c-2.27,0-4.24-.38-5.91-1.12-1.67-.75-2.95-1.79-3.84-3.12-.89-1.33-1.33-2.86-1.33-4.59,0-1.58,.38-3.01,1.12-4.3,.75-1.29,1.98-2.33,3.69-3.12,1.71-.79,4.01-1.18,6.9-1.18h10.44v3.06h-10.33c-2.92,0-4.95,.52-6.09,1.56-1.14,1.04-1.7,2.33-1.7,3.87,0,1.73,.67,3.12,2.02,4.15,1.35,1.04,3.23,1.56,5.65,1.56s4.3-.53,5.97-1.59c1.67-1.06,2.89-2.59,3.66-4.59l.92,2.83c-.77,2-2.11,3.6-4.01,4.79-1.9,1.19-4.3,1.79-7.18,1.79Zm10.44-.29v-6.69l-.17-1.1v-11.19c0-2.58-.72-4.56-2.16-5.94-1.44-1.38-3.59-2.08-6.43-2.08-1.96,0-3.83,.33-5.6,.98-1.77,.65-3.27,1.52-4.5,2.6l-1.85-3.06c1.54-1.31,3.38-2.32,5.54-3.03,2.15-.71,4.42-1.07,6.81-1.07,3.92,0,6.95,.97,9.09,2.91,2.14,1.94,3.2,4.9,3.2,8.86v18.81h-3.92Z"/><path class="cls-2" d="M1231.99,286.42v-3.4h18.75v3.4h-18.75Zm14.31,27.18c-2.85,0-5.04-.77-6.58-2.31-1.54-1.54-2.31-3.71-2.31-6.52v-28.45h4.1v28.21c0,1.77,.45,3.14,1.36,4.1,.9,.96,2.2,1.44,3.89,1.44,1.81,0,3.31-.52,4.5-1.56l1.44,2.94c-.81,.73-1.78,1.27-2.91,1.62-1.13,.35-2.3,.52-3.49,.52Z"/><path class="cls-2" d="M1273.76,276.32c-.85,0-1.56-.29-2.13-.87-.58-.58-.87-1.27-.87-2.08s.29-1.49,.87-2.05c.58-.56,1.29-.84,2.13-.84s1.56,.27,2.14,.81c.58,.54,.87,1.21,.87,2.02s-.28,1.56-.84,2.13c-.56,.58-1.28,.87-2.16,.87Zm-2.08,36.98v-30.29h4.1v30.29h-4.1Z"/><path class="cls-2" d="M1311.09,313.6c-2.96,0-5.6-.66-7.9-1.99-2.31-1.33-4.14-3.16-5.48-5.51-1.35-2.35-2.02-5-2.02-7.96s.67-5.71,2.02-8.02c1.35-2.31,3.17-4.12,5.48-5.42,2.31-1.31,4.94-1.96,7.9-1.96s5.66,.66,7.99,1.99c2.33,1.33,4.15,3.14,5.48,5.42,1.33,2.29,1.99,4.95,1.99,7.99s-.66,5.66-1.99,7.99c-1.33,2.33-3.16,4.15-5.51,5.48-2.35,1.33-5,1.99-7.96,1.99Zm0-3.64c2.19,0,4.13-.49,5.83-1.47,1.69-.98,3.03-2.37,4.01-4.15,.98-1.79,1.47-3.86,1.47-6.2s-.49-4.46-1.47-6.23c-.98-1.77-2.32-3.14-4.01-4.13-1.69-.98-3.62-1.47-5.77-1.47s-4.08,.49-5.77,1.47c-1.69,.98-3.04,2.36-4.04,4.13-1,1.77-1.5,3.85-1.5,6.23s.5,4.41,1.5,6.2c1,1.79,2.34,3.17,4.01,4.15,1.67,.98,3.59,1.47,5.74,1.47Z"/><path class="cls-2" d="M1361.93,282.73c2.46,0,4.62,.47,6.49,1.41,1.87,.94,3.33,2.38,4.39,4.3,1.06,1.92,1.59,4.35,1.59,7.27v17.6h-4.1v-17.19c0-3.19-.8-5.61-2.39-7.24-1.6-1.63-3.84-2.45-6.72-2.45-2.15,0-4.03,.43-5.63,1.3-1.6,.87-2.83,2.12-3.69,3.75-.87,1.64-1.3,3.61-1.3,5.91v15.92h-4.1v-30.29h3.92v8.31l-.63-1.56c.96-2.19,2.5-3.91,4.62-5.16,2.12-1.25,4.63-1.88,7.56-1.88Z"/><path class="cls-2" d="M994.56,378.85h24.29v3.69h-28.56v-40.39h27.7v3.69h-23.43v33Zm-.46-18.64h21.35v3.63h-21.35v-3.63Z"/><path class="cls-2" d="M1077.42,351.97c2.46,0,4.61,.47,6.43,1.41,1.83,.94,3.25,2.38,4.27,4.3,1.02,1.92,1.53,4.35,1.53,7.27v17.6h-4.1v-17.19c0-3.19-.76-5.61-2.28-7.24-1.52-1.63-3.66-2.45-6.43-2.45-2.08,0-3.88,.43-5.39,1.3-1.52,.87-2.69,2.12-3.52,3.75-.83,1.64-1.24,3.61-1.24,5.91v15.92h-4.1v-17.19c0-3.19-.77-5.61-2.31-7.24-1.54-1.63-3.69-2.45-6.46-2.45-2.04,0-3.83,.43-5.37,1.3-1.54,.87-2.72,2.12-3.55,3.75-.83,1.64-1.24,3.61-1.24,5.91v15.92h-4.1v-30.29h3.92v8.19l-.63-1.44c.92-2.19,2.41-3.91,4.47-5.16,2.06-1.25,4.49-1.88,7.3-1.88,2.96,0,5.48,.74,7.56,2.22,2.08,1.48,3.42,3.7,4.04,6.66l-1.62-.63c.88-2.46,2.45-4.45,4.7-5.97,2.25-1.52,4.95-2.28,8.11-2.28Z"/><path class="cls-2" d="M1112.32,393.74v-41.48h3.92v9.12l-.4,6.06,.58,6.12v20.19h-4.1Zm15.64-10.9c-2.62,0-4.98-.61-7.1-1.82-2.12-1.21-3.8-2.96-5.05-5.25-1.25-2.29-1.88-5.09-1.88-8.4s.61-6.11,1.85-8.4c1.23-2.29,2.9-4.03,5.02-5.22,2.12-1.19,4.5-1.79,7.15-1.79,2.88,0,5.47,.64,7.76,1.93,2.29,1.29,4.09,3.1,5.4,5.42,1.31,2.33,1.96,5.01,1.96,8.05s-.65,5.77-1.96,8.08c-1.31,2.31-3.11,4.12-5.4,5.42-2.29,1.31-4.88,1.96-7.76,1.96Zm-.29-3.64c2.15,0,4.08-.49,5.77-1.47,1.69-.98,3.04-2.37,4.04-4.15,1-1.79,1.5-3.86,1.5-6.2s-.5-4.4-1.5-6.17c-1-1.77-2.35-3.15-4.04-4.15-1.69-1-3.62-1.5-5.77-1.5s-4.09,.5-5.8,1.5c-1.71,1-3.06,2.39-4.04,4.15-.98,1.77-1.47,3.83-1.47,6.17s.49,4.41,1.47,6.2c.98,1.79,2.33,3.17,4.04,4.15,1.71,.98,3.64,1.47,5.8,1.47Z"/><path class="cls-2" d="M1162.98,382.55v-42.81h4.1v42.81h-4.1Z"/><path class="cls-2" d="M1202.39,382.84c-2.96,0-5.6-.66-7.9-1.99-2.31-1.33-4.14-3.16-5.48-5.51-1.35-2.35-2.02-5-2.02-7.96s.67-5.71,2.02-8.02c1.35-2.31,3.17-4.12,5.48-5.42,2.31-1.31,4.94-1.96,7.9-1.96s5.66,.66,7.99,1.99c2.33,1.33,4.15,3.14,5.48,5.42,1.33,2.29,1.99,4.95,1.99,7.99s-.66,5.66-1.99,7.99c-1.33,2.33-3.16,4.15-5.51,5.48-2.35,1.33-5,1.99-7.96,1.99Zm0-3.64c2.19,0,4.13-.49,5.83-1.47,1.69-.98,3.03-2.37,4.01-4.15,.98-1.79,1.47-3.86,1.47-6.2s-.49-4.46-1.47-6.23c-.98-1.77-2.32-3.14-4.01-4.13-1.69-.98-3.62-1.47-5.77-1.47s-4.08,.49-5.77,1.47c-1.69,.98-3.04,2.36-4.04,4.13-1,1.77-1.5,3.85-1.5,6.23s.5,4.41,1.5,6.2c1,1.79,2.34,3.17,4.01,4.15,1.67,.98,3.59,1.47,5.74,1.47Z"/><path class="cls-2" d="M1239.84,345.56c-.85,0-1.56-.29-2.13-.87-.58-.58-.87-1.27-.87-2.08s.29-1.49,.87-2.05c.58-.56,1.29-.84,2.13-.84s1.56,.27,2.14,.81c.58,.54,.87,1.21,.87,2.02s-.28,1.56-.84,2.13c-.56,.58-1.28,.87-2.16,.87Zm-2.08,36.98v-30.29h4.1v30.29h-4.1Z"/></g></g></g></svg>