<svg xmlns="http://www.w3.org/2000/svg" width="140.78" height="88.587" viewBox="0 0 140.78 88.587">
  <g id="logo" transform="translate(-504.112 -223.044)">
    <g id="Groupe_164" data-name="Groupe 164" transform="translate(530.103 223.044)">
      <path id="Tracé_457" data-name="Tracé 457" d="M643.854,364.966a17.163,17.163,0,0,1-.919,5.56l-.182.07-15.989-8.786-15.839,8.918q-.263-.1-.525-.2a17.237,17.237,0,0,1,1.183-13.8,16.885,16.885,0,0,1,.973-1.569,17.187,17.187,0,0,1,26.914-1.654,17.055,17.055,0,0,1,1.32,1.668,16.815,16.815,0,0,1,.969,1.564A17.115,17.115,0,0,1,643.854,364.966Z" transform="translate(-582.262 -284.79)" fill="#544fbd"/>
      <path id="Tracé_458" data-name="Tracé 458" d="M643.672,330.37a8.761,8.761,0,0,1-15.955,0,8.718,8.718,0,0,1,.916-1.562,8.758,8.758,0,0,0,14.123,0A8.718,8.718,0,0,1,643.672,330.37Z" transform="translate(-591.289 -275.399)" fill="#544fbd"/>
      <path id="Tracé_461" data-name="Tracé 461" d="M586.377,327.348a26.428,26.428,0,0,1-10.117,20.82q-.079-1.025-.08-2.07a26.428,26.428,0,0,1,10.117-20.82Q586.376,326.3,586.377,327.348Z" transform="translate(-565.778 -273.651)" fill="#544fbd"/>
      <path id="Tracé_462" data-name="Tracé 462" d="M585.874,321.807a16.873,16.873,0,0,0-.973,1.569,44.509,44.509,0,0,1-29.32-27.34c0-.062,0-.126,0-.188a44.322,44.322,0,0,1,2.755-15.434c0,.1,0,.2,0,.3A44.419,44.419,0,0,0,585.874,321.807Z" transform="translate(-555.581 -251.443)" fill="#544fbd"/>
      <path id="Tracé_463" data-name="Tracé 463" d="M701.762,295.961c0,.1,0,.2,0,.3A44.513,44.513,0,0,1,672.448,323.5a16.815,16.815,0,0,0-.969-1.564,44.421,44.421,0,0,0,27.571-41.1c0-.063,0-.126,0-.188A44.311,44.311,0,0,1,701.762,295.961Z" transform="translate(-612.952 -251.556)" fill="#544fbd"/>
      <path id="Tracé_464" data-name="Tracé 464" d="M604.442,300.895a8.758,8.758,0,1,1-17.4-1.4,8.758,8.758,0,0,0,17.292,0A8.68,8.68,0,0,1,604.442,300.895Z" transform="translate(-571.098 -260.889)" fill="#544fbd"/>
      <path id="Tracé_465" data-name="Tracé 465" d="M644.322,251.719a26.484,26.484,0,0,0-40.186,21.261,8.891,8.891,0,0,0-2.662-.007,26.485,26.485,0,0,0-40.241-21.221,44.423,44.423,0,0,1,83.089-.033Z" transform="translate(-558.379 -223.044)" fill="#544fbd"/>
      <path id="Tracé_466" data-name="Tracé 466" d="M690.74,327.348a26.428,26.428,0,0,0,10.117,20.82q.079-1.025.08-2.07a26.429,26.429,0,0,0-10.117-20.82Q690.741,326.3,690.74,327.348Z" transform="translate(-622.487 -273.651)" fill="#544fbd"/>
      <path id="Tracé_467" data-name="Tracé 467" d="M665.5,300.895a8.758,8.758,0,1,0,17.4-1.4,8.758,8.758,0,0,1-17.292,0A8.68,8.68,0,0,0,665.5,300.895Z" transform="translate(-609.993 -260.889)" fill="#544fbd"/>
    </g>
    <g id="Groupe_165" data-name="Groupe 165" transform="translate(504.112 268.729)">
      <path id="Tracé_468" data-name="Tracé 468" d="M644.891,327.336l-49.858,28.785-4.529-2.489-15.989-8.786-15.839,8.918-4.706,2.65-49.858-28.785L525.118,315.5l.042.024,4.884-1.662.465-.159,1.976,4.059,2.339,3.342,26.8,15.424,12.892,7.42,12.706-7.412,26.558-15.493,3.391-4.453,1.279-3.079.354.112,5.057,1.6.026-.014Z" transform="translate(-504.112 -313.511)" fill="#f1ccab"/>
    </g>
  </g>
</svg>
